G04 Layer: BottomSilkLayer*
G04 EasyEDA v6.3.22, 2020-04-03T23:48:27+02:00*
G04 c84acfee6ada4594b27f9e032ef05081,b454bf58618a4ea094e2924ff918fcb0,10*
G04 Gerber Generator version 0.2*
G04 Scale: 100 percent, Rotated: No, Reflected: No *
G04 Dimensions in millimeters *
G04 leading zeros omitted , absolute positions ,3 integer and 3 decimal *
%FSLAX33Y33*%
%MOMM*%
G90*
G71D02*

%ADD10C,0.254000*%
%ADD29C,0.152400*%

%LPD*%

%LPD*%
G36*
G01X12510Y11200D02*
G01X11676Y11200D01*
G01X11654Y11141D01*
G01X11649Y11123D01*
G01X11645Y11093D01*
G01X11643Y11054D01*
G01X11641Y11005D01*
G01X11640Y10950D01*
G01X11640Y10891D01*
G01X11641Y10827D01*
G01X11644Y10760D01*
G01X11657Y10438D01*
G01X12453Y10386D01*
G01X12564Y10520D01*
G01X12564Y10791D01*
G01X12562Y10902D01*
G01X12556Y11003D01*
G01X12548Y11083D01*
G01X12537Y11131D01*
G01X12510Y11200D01*
G37*

%LPD*%
G36*
G01X12474Y9894D02*
G01X11694Y9894D01*
G01X11635Y9836D01*
G01X11635Y7848D01*
G01X11609Y7848D01*
G01X11594Y7854D01*
G01X11561Y7870D01*
G01X11513Y7897D01*
G01X11451Y7933D01*
G01X11379Y7977D01*
G01X11296Y8026D01*
G01X11206Y8080D01*
G01X11111Y8139D01*
G01X11061Y8170D01*
G01X11009Y8202D01*
G01X10956Y8234D01*
G01X10902Y8267D01*
G01X10847Y8301D01*
G01X10791Y8334D01*
G01X10737Y8368D01*
G01X10682Y8401D01*
G01X10628Y8433D01*
G01X10576Y8464D01*
G01X10525Y8495D01*
G01X10477Y8524D01*
G01X10431Y8551D01*
G01X10388Y8577D01*
G01X10349Y8599D01*
G01X10313Y8620D01*
G01X9986Y8810D01*
G01X9926Y8787D01*
G01X9865Y8765D01*
G01X9865Y8306D01*
G01X9864Y8214D01*
G01X9864Y8128D01*
G01X9862Y8050D01*
G01X9860Y7982D01*
G01X9858Y7926D01*
G01X9855Y7884D01*
G01X9852Y7857D01*
G01X9849Y7848D01*
G01X9844Y7849D01*
G01X9832Y7854D01*
G01X9814Y7862D01*
G01X9789Y7872D01*
G01X9758Y7885D01*
G01X9721Y7901D01*
G01X9679Y7919D01*
G01X9631Y7940D01*
G01X9579Y7963D01*
G01X9521Y7988D01*
G01X9460Y8015D01*
G01X9394Y8044D01*
G01X9325Y8074D01*
G01X9252Y8106D01*
G01X9176Y8140D01*
G01X9097Y8175D01*
G01X9016Y8211D01*
G01X8931Y8248D01*
G01X8845Y8287D01*
G01X8757Y8326D01*
G01X7681Y8803D01*
G01X7564Y8708D01*
G01X7564Y7319D01*
G01X7565Y7241D01*
G01X7565Y7163D01*
G01X7566Y7007D01*
G01X7566Y6930D01*
G01X7567Y6778D01*
G01X7568Y6703D01*
G01X7569Y6629D01*
G01X7570Y6556D01*
G01X7571Y6485D01*
G01X7572Y6415D01*
G01X7573Y6347D01*
G01X7574Y6280D01*
G01X7575Y6216D01*
G01X7576Y6154D01*
G01X7577Y6095D01*
G01X7579Y6038D01*
G01X7580Y5984D01*
G01X7582Y5932D01*
G01X7583Y5884D01*
G01X7584Y5838D01*
G01X7586Y5797D01*
G01X7588Y5758D01*
G01X7590Y5724D01*
G01X7591Y5693D01*
G01X7593Y5666D01*
G01X7621Y5248D01*
G01X12409Y5200D01*
G01X12439Y5228D01*
G01X12470Y5257D01*
G01X12501Y7459D01*
G01X12533Y9661D01*
G01X12503Y9778D01*
G01X12474Y9894D01*
G37*

%LPC*%
G36*
G01X7686Y6184D02*
G01X7670Y6476D01*
G01X7670Y5257D01*
G01X7686Y5575D01*
G01X7688Y5644D01*
G01X7690Y5721D01*
G01X7691Y5802D01*
G01X7692Y5885D01*
G01X7691Y5967D01*
G01X7690Y6046D01*
G01X7688Y6119D01*
G01X7686Y6184D01*
G37*
G36*
G01X9986Y8446D02*
G01X9970Y8696D01*
G01X9970Y7695D01*
G01X9986Y7946D01*
G01X9989Y8001D01*
G01X9991Y8063D01*
G01X9992Y8128D01*
G01X9993Y8196D01*
G01X9992Y8264D01*
G01X9991Y8329D01*
G01X9989Y8391D01*
G01X9986Y8446D01*
G37*

%LPD*%
G54D10*
G01X23232Y15256D02*
G01X23232Y13453D01*
G01X26127Y10557D01*
G01X40910Y10557D01*
G01X41215Y10557D02*
G01X43933Y13250D01*
G01X43933Y15358D01*
G01X43933Y20336D02*
G01X43933Y21936D01*
G01X40910Y24934D01*
G01X26026Y24934D02*
G01X23232Y22140D01*
G01X23232Y20336D01*
G54D29*
G01X20291Y20268D02*
G01X20186Y20321D01*
G01X20082Y20425D01*
G01X20031Y20527D01*
G01X20031Y20735D01*
G01X20082Y20839D01*
G01X20186Y20943D01*
G01X20291Y20997D01*
G01X20445Y21047D01*
G01X20705Y21047D01*
G01X20862Y20997D01*
G01X20966Y20943D01*
G01X21070Y20839D01*
G01X21121Y20735D01*
G01X21121Y20527D01*
G01X21070Y20425D01*
G01X20966Y20321D01*
G01X20862Y20268D01*
G01X20031Y19925D02*
G01X21121Y19925D01*
G01X20031Y19925D02*
G01X20031Y19457D01*
G01X20082Y19303D01*
G01X20133Y19249D01*
G01X20237Y19198D01*
G01X20341Y19198D01*
G01X20445Y19249D01*
G01X20499Y19303D01*
G01X20550Y19457D01*
G01X20550Y19925D01*
G01X20550Y19562D02*
G01X21121Y19198D01*
G01X20291Y18802D02*
G01X20237Y18802D01*
G01X20133Y18751D01*
G01X20082Y18698D01*
G01X20031Y18596D01*
G01X20031Y18388D01*
G01X20082Y18284D01*
G01X20133Y18231D01*
G01X20237Y18180D01*
G01X20341Y18180D01*
G01X20445Y18231D01*
G01X20603Y18335D01*
G01X21121Y18855D01*
G01X21121Y18126D01*
G01X20031Y17474D02*
G01X20082Y17629D01*
G01X20237Y17733D01*
G01X20499Y17784D01*
G01X20654Y17784D01*
G01X20913Y17733D01*
G01X21070Y17629D01*
G01X21121Y17474D01*
G01X21121Y17370D01*
G01X21070Y17212D01*
G01X20913Y17110D01*
G01X20654Y17057D01*
G01X20499Y17057D01*
G01X20237Y17110D01*
G01X20082Y17212D01*
G01X20031Y17370D01*
G01X20031Y17474D01*
G01X20031Y16610D02*
G01X20031Y16039D01*
G01X20445Y16351D01*
G01X20445Y16196D01*
G01X20499Y16092D01*
G01X20550Y16039D01*
G01X20705Y15988D01*
G01X20809Y15988D01*
G01X20966Y16039D01*
G01X21070Y16143D01*
G01X21121Y16298D01*
G01X21121Y16455D01*
G01X21070Y16610D01*
G01X21017Y16663D01*
G01X20913Y16714D01*
G01X20291Y15592D02*
G01X20237Y15592D01*
G01X20133Y15541D01*
G01X20082Y15487D01*
G01X20031Y15383D01*
G01X20031Y15178D01*
G01X20082Y15073D01*
G01X20133Y15020D01*
G01X20237Y14969D01*
G01X20341Y14969D01*
G01X20445Y15020D01*
G01X20603Y15124D01*
G01X21121Y15645D01*
G01X21121Y14916D01*
G54D10*
G75*
G01X40921Y24946D02*
G03X37921Y25246I-1683J-1683D01*
G01*
G75*
G01X37921Y25246D02*
G02X29021Y25246I-4450J6703D01*
G01*
G75*
G01X29021Y25246D02*
G03X26021Y24946I-1317J-1983D01*
G01*
M00*
M02*
