;Layer: Drill PTH
;EasyEDA v6.3.22, 2020-04-03T23:48:27+02:00
;c84acfee6ada4594b27f9e032ef05081,b454bf58618a4ea094e2924ff918fcb0,10
;Gerber Generator version 0.2
M48
METRIC,LZ,000.000
;Holesize 1 = 0.305 METRIC
T01C0.305
;Holesize 2 = 0.310 METRIC
T02C0.310
;Holesize 3 = 0.701 METRIC
T03C0.701
;Holesize 4 = 0.915 METRIC
T04C0.915
;Holesize 5 = 1.000 METRIC
T05C1.000
;Holesize 6 = 1.701 METRIC
T06C1.701
%
G05
G90
T01
X+014316Y+009998
X+014316Y+008347
X+022571Y+023206
X+019777Y+013935
X+045050Y+014964
X+031588Y+011649
X+032858Y+011649
X+034128Y+011649
X+036795Y+011649
T02
X+029683Y+011141
T03
X+050902Y+025746
X+058502Y+025746
T04
X+042256Y+006411
X+044796Y+006379
X+047336Y+006379
X+049876Y+006379
X+052416Y+006379
X+038193Y+031207
X+035653Y+031207
X+033113Y+031207
X+030573Y+031207
T05
X+033874Y+004918
X+031868Y+004918
X+035779Y+004918
T06
X+038675Y+004918
X+029074Y+004918
M30
