G04 Layer: TopSilkLayer*
G04 EasyEDA v6.3.22, 2020-04-03T23:48:27+02:00*
G04 c84acfee6ada4594b27f9e032ef05081,b454bf58618a4ea094e2924ff918fcb0,10*
G04 Gerber Generator version 0.2*
G04 Scale: 100 percent, Rotated: No, Reflected: No *
G04 Dimensions in millimeters *
G04 leading zeros omitted , absolute positions ,3 integer and 3 decimal *
%FSLAX33Y33*%
%MOMM*%
G90*
G71D02*

%ADD10C,0.254000*%
%ADD13C,0.203200*%
%ADD27C,0.299999*%
%ADD28C,0.399999*%
%ADD29C,0.152400*%
%ADD30C,0.202997*%

%LPD*%

%LPD*%
G36*
G01X17840Y7771D02*
G01X17006Y7771D01*
G01X16983Y7712D01*
G01X16979Y7694D01*
G01X16976Y7664D01*
G01X16973Y7625D01*
G01X16971Y7576D01*
G01X16970Y7521D01*
G01X16970Y7462D01*
G01X16972Y7398D01*
G01X16974Y7331D01*
G01X16987Y7009D01*
G01X17784Y6957D01*
G01X17894Y7091D01*
G01X17894Y7362D01*
G01X17892Y7473D01*
G01X17886Y7574D01*
G01X17878Y7654D01*
G01X17867Y7702D01*
G01X17840Y7771D01*
G37*

%LPD*%
G36*
G01X17804Y6465D02*
G01X17024Y6465D01*
G01X16965Y6407D01*
G01X16965Y4419D01*
G01X16939Y4419D01*
G01X16924Y4425D01*
G01X16892Y4441D01*
G01X16843Y4468D01*
G01X16782Y4504D01*
G01X16709Y4548D01*
G01X16626Y4597D01*
G01X16536Y4651D01*
G01X16441Y4710D01*
G01X16391Y4741D01*
G01X16287Y4805D01*
G01X16232Y4838D01*
G01X16177Y4872D01*
G01X16067Y4939D01*
G01X16012Y4972D01*
G01X15958Y5004D01*
G01X15906Y5035D01*
G01X15807Y5095D01*
G01X15761Y5122D01*
G01X15718Y5148D01*
G01X15678Y5170D01*
G01X15643Y5191D01*
G01X15316Y5381D01*
G01X15256Y5358D01*
G01X15195Y5336D01*
G01X15195Y4785D01*
G01X15194Y4699D01*
G01X15192Y4621D01*
G01X15190Y4553D01*
G01X15188Y4497D01*
G01X15185Y4455D01*
G01X15182Y4428D01*
G01X15179Y4419D01*
G01X15174Y4420D01*
G01X15162Y4425D01*
G01X15144Y4433D01*
G01X15119Y4443D01*
G01X15088Y4456D01*
G01X15051Y4472D01*
G01X15009Y4490D01*
G01X14962Y4511D01*
G01X14909Y4534D01*
G01X14852Y4559D01*
G01X14790Y4586D01*
G01X14725Y4615D01*
G01X14655Y4645D01*
G01X14582Y4677D01*
G01X14506Y4711D01*
G01X14427Y4746D01*
G01X14345Y4782D01*
G01X14261Y4819D01*
G01X14175Y4858D01*
G01X14087Y4897D01*
G01X13011Y5374D01*
G01X12953Y5326D01*
G01X12894Y5279D01*
G01X12895Y3967D01*
G01X12895Y3734D01*
G01X12896Y3578D01*
G01X12896Y3501D01*
G01X12897Y3349D01*
G01X12898Y3274D01*
G01X12899Y3200D01*
G01X12900Y3127D01*
G01X12901Y3056D01*
G01X12902Y2986D01*
G01X12903Y2918D01*
G01X12904Y2851D01*
G01X12905Y2787D01*
G01X12906Y2725D01*
G01X12908Y2666D01*
G01X12909Y2609D01*
G01X12910Y2555D01*
G01X12912Y2503D01*
G01X12913Y2455D01*
G01X12915Y2409D01*
G01X12916Y2368D01*
G01X12918Y2329D01*
G01X12919Y2295D01*
G01X12921Y2264D01*
G01X12923Y2237D01*
G01X12951Y1819D01*
G01X17739Y1771D01*
G01X17770Y1799D01*
G01X17800Y1828D01*
G01X17863Y6232D01*
G01X17833Y6349D01*
G01X17804Y6465D01*
G37*

%LPC*%
G36*
G01X13016Y2755D02*
G01X13000Y3047D01*
G01X13000Y1828D01*
G01X13016Y2146D01*
G01X13018Y2215D01*
G01X13020Y2292D01*
G01X13022Y2373D01*
G01X13022Y2538D01*
G01X13020Y2617D01*
G01X13018Y2690D01*
G01X13016Y2755D01*
G37*
G36*
G01X15316Y5017D02*
G01X15300Y5267D01*
G01X15300Y4266D01*
G01X15316Y4517D01*
G01X15319Y4572D01*
G01X15321Y4634D01*
G01X15322Y4699D01*
G01X15323Y4767D01*
G01X15322Y4835D01*
G01X15321Y4900D01*
G01X15319Y4962D01*
G01X15316Y5017D01*
G37*

%LPD*%
G54D10*
G01X51527Y8855D02*
G01X53376Y8855D01*
G01X53376Y11395D01*
G01X51527Y11395D01*
G01X50003Y11395D02*
G01X48145Y11395D01*
G01X48145Y8855D01*
G01X50003Y8855D01*
G01X34290Y10817D02*
G01X35890Y10817D01*
G01X34290Y8417D02*
G01X35890Y8417D01*
G01X32490Y10817D02*
G01X30990Y10817D01*
G01X32490Y8417D02*
G01X30990Y8417D01*
G01X35890Y10817D02*
G01X35890Y8417D01*
G01X30590Y10317D02*
G01X30590Y8917D01*
G01X30590Y10317D02*
G01X30590Y10418D01*
G01X30990Y10817D01*
G01X30590Y8917D02*
G01X30590Y8817D01*
G01X30990Y8417D01*
G01X35993Y17877D02*
G01X35993Y21677D01*
G01X30993Y21677D01*
G01X30993Y17877D01*
G01X35993Y17877D01*
G01X59274Y8855D02*
G01X61123Y8855D01*
G01X61123Y11395D01*
G01X59274Y11395D01*
G01X57750Y11395D02*
G01X55892Y11395D01*
G01X55892Y8855D01*
G01X57750Y8855D01*
G01X6057Y26318D02*
G01X4208Y26318D01*
G01X4208Y23778D01*
G01X6057Y23778D01*
G01X7581Y23778D02*
G01X9439Y23778D01*
G01X9439Y26318D01*
G01X7581Y26318D01*
G01X14439Y26318D02*
G01X12591Y26318D01*
G01X12591Y23778D01*
G01X14439Y23778D01*
G01X15963Y23778D02*
G01X17821Y23778D01*
G01X17821Y26318D01*
G01X15963Y26318D01*
G01X50384Y27524D02*
G01X51400Y27524D01*
G01X50892Y28159D02*
G01X50892Y26889D01*
G01X28871Y6823D02*
G01X33163Y6823D01*
G01X33163Y6823D02*
G01X34586Y6823D01*
G01X34586Y6823D02*
G01X38878Y6823D01*
G01X38878Y6823D02*
G01X38878Y3013D01*
G01X38878Y3013D02*
G01X35983Y3013D01*
G01X35983Y3013D02*
G01X34865Y3013D01*
G01X34865Y3013D02*
G01X32884Y3013D01*
G01X32884Y3013D02*
G01X31766Y3013D01*
G01X31766Y3013D02*
G01X28871Y3013D01*
G01X28871Y3013D02*
G01X28871Y6823D01*
G01X33163Y6823D02*
G01X33163Y6112D01*
G01X33163Y6112D02*
G01X34586Y6112D01*
G01X34586Y6112D02*
G01X34586Y6823D01*
G01X31766Y3013D02*
G01X31766Y3318D01*
G01X31766Y3318D02*
G01X35983Y3318D01*
G01X35983Y3318D02*
G01X35983Y3013D01*
G01X32884Y3013D02*
G01X32884Y-2091D01*
G01X32884Y-2091D02*
G01X34865Y-2091D01*
G01X34865Y-2091D02*
G01X34865Y3013D01*
G01X9823Y13476D02*
G01X9823Y19476D01*
G01X3823Y13475D02*
G01X3823Y19475D01*
G01X9824Y19476D02*
G01X3824Y19476D01*
G01X9824Y13476D02*
G01X3824Y13476D01*
G01X18205Y13476D02*
G01X18205Y19476D01*
G01X12205Y13475D02*
G01X12205Y19475D01*
G01X18206Y19476D02*
G01X12206Y19476D01*
G01X18206Y13476D02*
G01X12206Y13476D01*
G01X52465Y12840D02*
G01X58465Y12840D01*
G01X52464Y18840D02*
G01X58464Y18840D01*
G01X58465Y12840D02*
G01X58465Y18840D01*
G01X52465Y12840D02*
G01X52465Y18840D01*
G01X19667Y32446D02*
G01X47081Y32446D01*
G01X47081Y4537D01*
G01X19667Y4537D01*
G01X19667Y32446D01*
G01X20159Y25365D02*
G01X46575Y25365D01*
G01X46575Y12411D01*
G01X20159Y12411D01*
G01X20159Y25365D01*
G54D13*
G01X8838Y31423D02*
G01X8474Y30468D01*
G01X8838Y31423D02*
G01X9201Y30468D01*
G01X8612Y30786D02*
G01X9066Y30786D01*
G01X9821Y31423D02*
G01X9821Y30468D01*
G01X9501Y31423D02*
G01X10138Y31423D01*
G01X10755Y31423D02*
G01X10755Y30468D01*
G01X10438Y31423D02*
G01X11075Y31423D01*
G01X11375Y31423D02*
G01X11375Y30468D01*
G01X11675Y31423D02*
G01X11675Y30468D01*
G01X11675Y31423D02*
G01X12310Y30468D01*
G01X12310Y31423D02*
G01X12310Y30468D01*
G01X12610Y31423D02*
G01X12975Y30969D01*
G01X12975Y30468D01*
G01X13339Y31423D02*
G01X12975Y30969D01*
G01X15020Y31195D02*
G01X14974Y31286D01*
G01X14883Y31378D01*
G01X14791Y31423D01*
G01X14611Y31423D01*
G01X14520Y31378D01*
G01X14428Y31286D01*
G01X14383Y31195D01*
G01X14339Y31060D01*
G01X14339Y30832D01*
G01X14383Y30694D01*
G01X14428Y30606D01*
G01X14520Y30514D01*
G01X14611Y30468D01*
G01X14791Y30468D01*
G01X14883Y30514D01*
G01X14974Y30606D01*
G01X15020Y30694D01*
G01X15020Y30832D01*
G01X14791Y30832D02*
G01X15020Y30832D01*
G01X15683Y31423D02*
G01X15320Y30468D01*
G01X15683Y31423D02*
G01X16046Y30468D01*
G01X15457Y30786D02*
G01X15912Y30786D01*
G01X16346Y31423D02*
G01X16346Y30468D01*
G01X16346Y31423D02*
G01X16712Y30468D01*
G01X17075Y31423D02*
G01X16712Y30468D01*
G01X17075Y31423D02*
G01X17075Y30468D01*
G01X17375Y31423D02*
G01X17375Y30468D01*
G01X17375Y31423D02*
G01X17966Y31423D01*
G01X17375Y30969D02*
G01X17738Y30969D01*
G01X17375Y30468D02*
G01X17966Y30468D01*
G01X19648Y31195D02*
G01X19602Y31286D01*
G01X19511Y31378D01*
G01X19419Y31423D01*
G01X19239Y31423D01*
G01X19148Y31378D01*
G01X19056Y31286D01*
G01X19010Y31195D01*
G01X18965Y31060D01*
G01X18965Y30832D01*
G01X19010Y30694D01*
G01X19056Y30606D01*
G01X19148Y30514D01*
G01X19239Y30468D01*
G01X19419Y30468D01*
G01X19511Y30514D01*
G01X19602Y30606D01*
G01X19648Y30694D01*
G01X20219Y31423D02*
G01X20128Y31378D01*
G01X20039Y31286D01*
G01X19993Y31195D01*
G01X19948Y31060D01*
G01X19948Y30832D01*
G01X19993Y30694D01*
G01X20039Y30606D01*
G01X20128Y30514D01*
G01X20219Y30468D01*
G01X20402Y30468D01*
G01X20494Y30514D01*
G01X20583Y30606D01*
G01X20628Y30694D01*
G01X20674Y30832D01*
G01X20674Y31060D01*
G01X20628Y31195D01*
G01X20583Y31286D01*
G01X20494Y31378D01*
G01X20402Y31423D01*
G01X20219Y31423D01*
G01X20974Y31423D02*
G01X20974Y30468D01*
G01X20974Y31423D02*
G01X21611Y30468D01*
G01X21611Y31423D02*
G01X21611Y30468D01*
G01X22546Y31286D02*
G01X22457Y31378D01*
G01X22320Y31423D01*
G01X22137Y31423D01*
G01X22003Y31378D01*
G01X21911Y31286D01*
G01X21911Y31195D01*
G01X21957Y31103D01*
G01X22003Y31060D01*
G01X22091Y31014D01*
G01X22366Y30923D01*
G01X22457Y30877D01*
G01X22503Y30832D01*
G01X22546Y30740D01*
G01X22546Y30606D01*
G01X22457Y30514D01*
G01X22320Y30468D01*
G01X22137Y30468D01*
G01X22003Y30514D01*
G01X21911Y30606D01*
G01X23120Y31423D02*
G01X23029Y31378D01*
G01X22937Y31286D01*
G01X22892Y31195D01*
G01X22848Y31060D01*
G01X22848Y30832D01*
G01X22892Y30694D01*
G01X22937Y30606D01*
G01X23029Y30514D01*
G01X23120Y30468D01*
G01X23303Y30468D01*
G01X23392Y30514D01*
G01X23483Y30606D01*
G01X23529Y30694D01*
G01X23575Y30832D01*
G01X23575Y31060D01*
G01X23529Y31195D01*
G01X23483Y31286D01*
G01X23392Y31378D01*
G01X23303Y31423D01*
G01X23120Y31423D01*
G01X23875Y31423D02*
G01X23875Y30468D01*
G01X23875Y30468D02*
G01X24421Y30468D01*
G01X24720Y31423D02*
G01X24720Y30468D01*
G01X24720Y31423D02*
G01X25310Y31423D01*
G01X24720Y30969D02*
G01X25084Y30969D01*
G01X24720Y30468D02*
G01X25310Y30468D01*
G54D29*
G01X54063Y10555D02*
G01X54167Y10606D01*
G01X54322Y10760D01*
G01X54322Y9671D01*
G01X54665Y10760D02*
G01X54665Y9671D01*
G01X55394Y10760D02*
G01X54665Y10034D01*
G01X54926Y10293D02*
G01X55394Y9671D01*
G01X26508Y9744D02*
G01X26508Y8652D01*
G01X26508Y8652D02*
G01X27131Y8652D01*
G01X27474Y9744D02*
G01X27474Y8652D01*
G01X27474Y9744D02*
G01X28149Y9744D01*
G01X27474Y9224D02*
G01X27890Y9224D01*
G01X27474Y8652D02*
G01X28149Y8652D01*
G01X28492Y9744D02*
G01X28492Y8652D01*
G01X28492Y9744D02*
G01X28858Y9744D01*
G01X29013Y9691D01*
G01X29117Y9590D01*
G01X29168Y9485D01*
G01X29221Y9328D01*
G01X29221Y9069D01*
G01X29168Y8914D01*
G01X29117Y8810D01*
G01X29013Y8706D01*
G01X28858Y8652D01*
G01X28492Y8652D01*
G01X29564Y9536D02*
G01X29668Y9590D01*
G01X29823Y9744D01*
G01X29823Y8652D01*
G01X38393Y23046D02*
G01X37304Y23460D01*
G01X38393Y23046D02*
G01X37304Y22630D01*
G01X37667Y23306D02*
G01X37667Y22787D01*
G01X38393Y21924D02*
G01X37304Y21924D01*
G01X38393Y22287D02*
G01X38393Y21561D01*
G01X38393Y20854D02*
G01X37304Y20854D01*
G01X38393Y21218D02*
G01X38393Y20489D01*
G01X38393Y20146D02*
G01X37304Y20146D01*
G01X38393Y19803D02*
G01X37304Y19803D01*
G01X38393Y19803D02*
G01X37304Y19076D01*
G01X38393Y19076D02*
G01X37304Y19076D01*
G01X38393Y18734D02*
G01X37875Y18317D01*
G01X37304Y18317D01*
G01X38393Y17903D02*
G01X37875Y18317D01*
G01X38393Y17301D02*
G01X38342Y17456D01*
G01X38238Y17507D01*
G01X38134Y17507D01*
G01X38030Y17456D01*
G01X37979Y17352D01*
G01X37926Y17144D01*
G01X37875Y16989D01*
G01X37771Y16884D01*
G01X37667Y16831D01*
G01X37512Y16831D01*
G01X37408Y16884D01*
G01X37354Y16935D01*
G01X37304Y17093D01*
G01X37304Y17301D01*
G01X37354Y17456D01*
G01X37408Y17507D01*
G01X37512Y17560D01*
G01X37667Y17560D01*
G01X37771Y17507D01*
G01X37875Y17403D01*
G01X37926Y17248D01*
G01X37979Y17039D01*
G01X38030Y16935D01*
G01X38134Y16884D01*
G01X38238Y16884D01*
G01X38342Y16935D01*
G01X38393Y17093D01*
G01X38393Y17301D01*
G01X38393Y15866D02*
G01X38393Y16387D01*
G01X37926Y16437D01*
G01X37979Y16387D01*
G01X38030Y16229D01*
G01X38030Y16074D01*
G01X37979Y15917D01*
G01X37875Y15815D01*
G01X37720Y15762D01*
G01X37616Y15762D01*
G01X37458Y15815D01*
G01X37354Y15917D01*
G01X37304Y16074D01*
G01X37304Y16229D01*
G01X37354Y16387D01*
G01X37408Y16437D01*
G01X37512Y16488D01*
G01X57771Y12838D02*
G01X57720Y12942D01*
G01X57565Y12993D01*
G01X57461Y12993D01*
G01X57304Y12942D01*
G01X57199Y12787D01*
G01X57149Y12526D01*
G01X57149Y12267D01*
G01X57199Y12058D01*
G01X57304Y11954D01*
G01X57461Y11903D01*
G01X57512Y11903D01*
G01X57669Y11954D01*
G01X57771Y12058D01*
G01X57824Y12216D01*
G01X57824Y12267D01*
G01X57771Y12422D01*
G01X57669Y12526D01*
G01X57512Y12579D01*
G01X57461Y12579D01*
G01X57304Y12526D01*
G01X57199Y12422D01*
G01X57149Y12267D01*
G01X58218Y12163D02*
G01X58167Y12112D01*
G01X58218Y12058D01*
G01X58271Y12112D01*
G01X58218Y12163D01*
G01X58873Y12993D02*
G01X58718Y12942D01*
G01X58665Y12838D01*
G01X58665Y12734D01*
G01X58718Y12630D01*
G01X58822Y12579D01*
G01X59028Y12526D01*
G01X59186Y12475D01*
G01X59290Y12371D01*
G01X59341Y12267D01*
G01X59341Y12112D01*
G01X59290Y12008D01*
G01X59236Y11954D01*
G01X59082Y11903D01*
G01X58873Y11903D01*
G01X58718Y11954D01*
G01X58665Y12008D01*
G01X58614Y12112D01*
G01X58614Y12267D01*
G01X58665Y12371D01*
G01X58769Y12475D01*
G01X58927Y12526D01*
G01X59132Y12579D01*
G01X59236Y12630D01*
G01X59290Y12734D01*
G01X59290Y12838D01*
G01X59236Y12942D01*
G01X59082Y12993D01*
G01X58873Y12993D01*
G01X59684Y12993D02*
G01X59684Y11903D01*
G01X60412Y12993D02*
G01X59684Y12267D01*
G01X59943Y12526D02*
G01X60412Y11903D01*
G01X5807Y27827D02*
G01X5912Y27878D01*
G01X6067Y28032D01*
G01X6067Y26943D01*
G01X6722Y28032D02*
G01X6567Y27982D01*
G01X6463Y27827D01*
G01X6409Y27565D01*
G01X6409Y27410D01*
G01X6463Y27151D01*
G01X6567Y26994D01*
G01X6722Y26943D01*
G01X6826Y26943D01*
G01X6981Y26994D01*
G01X7085Y27151D01*
G01X7138Y27410D01*
G01X7138Y27565D01*
G01X7085Y27827D01*
G01X6981Y27982D01*
G01X6826Y28032D01*
G01X6722Y28032D01*
G01X7481Y28032D02*
G01X7481Y26943D01*
G01X8208Y28032D02*
G01X7481Y27306D01*
G01X7740Y27565D02*
G01X8208Y26943D01*
G01X13935Y27827D02*
G01X14040Y27878D01*
G01X14195Y28032D01*
G01X14195Y26943D01*
G01X14850Y28032D02*
G01X14695Y27982D01*
G01X14591Y27827D01*
G01X14537Y27565D01*
G01X14537Y27410D01*
G01X14591Y27151D01*
G01X14695Y26994D01*
G01X14850Y26943D01*
G01X14954Y26943D01*
G01X15109Y26994D01*
G01X15213Y27151D01*
G01X15266Y27410D01*
G01X15266Y27565D01*
G01X15213Y27827D01*
G01X15109Y27982D01*
G01X14954Y28032D01*
G01X14850Y28032D01*
G01X15609Y28032D02*
G01X15609Y26943D01*
G01X16336Y28032D02*
G01X15609Y27306D01*
G01X15868Y27565D02*
G01X16336Y26943D01*
G01X51400Y29810D02*
G01X51400Y28721D01*
G01X51400Y29810D02*
G01X51868Y29810D01*
G01X52023Y29760D01*
G01X52076Y29709D01*
G01X52127Y29605D01*
G01X52127Y29501D01*
G01X52076Y29396D01*
G01X52023Y29343D01*
G01X51868Y29292D01*
G01X51400Y29292D02*
G01X51868Y29292D01*
G01X52023Y29239D01*
G01X52076Y29188D01*
G01X52127Y29084D01*
G01X52127Y28929D01*
G01X52076Y28825D01*
G01X52023Y28772D01*
G01X51868Y28721D01*
G01X51400Y28721D01*
G01X52470Y29810D02*
G01X52470Y29033D01*
G01X52523Y28876D01*
G01X52627Y28772D01*
G01X52782Y28721D01*
G01X52886Y28721D01*
G01X53041Y28772D01*
G01X53145Y28876D01*
G01X53199Y29033D01*
G01X53199Y29810D01*
G01X54268Y29810D02*
G01X53542Y28721D01*
G01X53542Y29810D02*
G01X54268Y29810D01*
G01X53542Y28721D02*
G01X54268Y28721D01*
G01X55337Y29810D02*
G01X54611Y28721D01*
G01X54611Y29810D02*
G01X55337Y29810D01*
G01X54611Y28721D02*
G01X55337Y28721D01*
G01X55680Y29810D02*
G01X55680Y28721D01*
G01X55680Y29810D02*
G01X56356Y29810D01*
G01X55680Y29292D02*
G01X56097Y29292D01*
G01X55680Y28721D02*
G01X56356Y28721D01*
G01X56699Y29810D02*
G01X56699Y28721D01*
G01X56699Y29810D02*
G01X57166Y29810D01*
G01X57324Y29760D01*
G01X57375Y29709D01*
G01X57428Y29605D01*
G01X57428Y29501D01*
G01X57375Y29396D01*
G01X57324Y29343D01*
G01X57166Y29292D01*
G01X56699Y29292D01*
G01X57065Y29292D02*
G01X57428Y28721D01*
G01X57771Y29605D02*
G01X57875Y29656D01*
G01X58030Y29810D01*
G01X58030Y28721D01*
G01X25076Y2224D02*
G01X24972Y2328D01*
G01X24817Y2378D01*
G01X24609Y2378D01*
G01X24454Y2328D01*
G01X24349Y2224D01*
G01X24349Y2119D01*
G01X24400Y2015D01*
G01X24454Y1964D01*
G01X24558Y1911D01*
G01X24870Y1807D01*
G01X24972Y1756D01*
G01X25025Y1705D01*
G01X25076Y1601D01*
G01X25076Y1444D01*
G01X24972Y1340D01*
G01X24817Y1289D01*
G01X24609Y1289D01*
G01X24454Y1340D01*
G01X24349Y1444D01*
G01X25419Y2378D02*
G01X25680Y1289D01*
G01X25940Y2378D02*
G01X25680Y1289D01*
G01X25940Y2378D02*
G01X26199Y1289D01*
G01X26458Y2378D02*
G01X26199Y1289D01*
G01X26801Y2378D02*
G01X26801Y1289D01*
G01X27509Y2378D02*
G01X27509Y1289D01*
G01X27143Y2378D02*
G01X27872Y2378D01*
G01X28995Y2119D02*
G01X28942Y2224D01*
G01X28838Y2328D01*
G01X28734Y2378D01*
G01X28528Y2378D01*
G01X28424Y2328D01*
G01X28320Y2224D01*
G01X28266Y2119D01*
G01X28215Y1964D01*
G01X28215Y1705D01*
G01X28266Y1548D01*
G01X28320Y1444D01*
G01X28424Y1340D01*
G01X28528Y1289D01*
G01X28734Y1289D01*
G01X28838Y1340D01*
G01X28942Y1444D01*
G01X28995Y1548D01*
G01X29338Y2378D02*
G01X29338Y1289D01*
G01X30064Y2378D02*
G01X30064Y1289D01*
G01X29338Y1860D02*
G01X30064Y1860D01*
G01X2251Y14903D02*
G01X3344Y14903D01*
G01X3344Y14903D02*
G01X3344Y15526D01*
G01X2251Y15868D02*
G01X3344Y15868D01*
G01X2251Y15868D02*
G01X2251Y16544D01*
G01X2772Y15868D02*
G01X2772Y16285D01*
G01X3344Y15868D02*
G01X3344Y16544D01*
G01X2251Y16887D02*
G01X3344Y16887D01*
G01X2251Y16887D02*
G01X2251Y17563D01*
G01X2772Y16887D02*
G01X2772Y17304D01*
G01X2251Y18269D02*
G01X3344Y18269D01*
G01X2251Y17906D02*
G01X2251Y18634D01*
G01X10506Y14428D02*
G01X11599Y14428D01*
G01X10506Y14428D02*
G01X10506Y14896D01*
G01X10560Y15051D01*
G01X10611Y15104D01*
G01X10715Y15155D01*
G01X10819Y15155D01*
G01X10923Y15104D01*
G01X10974Y15051D01*
G01X11027Y14896D01*
G01X11027Y14428D01*
G01X11027Y14791D02*
G01X11599Y15155D01*
G01X10506Y15498D02*
G01X11599Y15498D01*
G01X10768Y16620D02*
G01X10664Y16569D01*
G01X10560Y16465D01*
G01X10506Y16361D01*
G01X10506Y16153D01*
G01X10560Y16049D01*
G01X10664Y15945D01*
G01X10768Y15894D01*
G01X10923Y15840D01*
G01X11182Y15840D01*
G01X11340Y15894D01*
G01X11441Y15945D01*
G01X11545Y16049D01*
G01X11599Y16153D01*
G01X11599Y16361D01*
G01X11545Y16465D01*
G01X11441Y16569D01*
G01X11340Y16620D01*
G01X11182Y16620D01*
G01X11182Y16361D02*
G01X11182Y16620D01*
G01X10506Y16963D02*
G01X11599Y16963D01*
G01X10506Y17692D02*
G01X11599Y17692D01*
G01X11027Y16963D02*
G01X11027Y17692D01*
G01X10506Y18398D02*
G01X11599Y18398D01*
G01X10506Y18035D02*
G01X10506Y18761D01*
G01X59274Y16349D02*
G01X59274Y15256D01*
G01X59274Y16349D02*
G01X59950Y16349D01*
G01X59274Y15828D02*
G01X59691Y15828D01*
G01X60293Y16349D02*
G01X60293Y15256D01*
G01X60636Y16349D02*
G01X60636Y15256D01*
G01X60636Y16349D02*
G01X61103Y16349D01*
G01X61258Y16295D01*
G01X61312Y16244D01*
G01X61362Y16140D01*
G01X61362Y16036D01*
G01X61312Y15932D01*
G01X61258Y15881D01*
G01X61103Y15828D01*
G01X60636Y15828D01*
G01X60999Y15828D02*
G01X61362Y15256D01*
G01X61705Y16349D02*
G01X61705Y15256D01*
G01X61705Y16349D02*
G01X62381Y16349D01*
G01X61705Y15828D02*
G01X62122Y15828D01*
G01X61705Y15256D02*
G01X62381Y15256D01*
G01X30758Y34510D02*
G01X30600Y34459D01*
G01X30496Y34304D01*
G01X30445Y34042D01*
G01X30445Y33887D01*
G01X30496Y33628D01*
G01X30600Y33471D01*
G01X30758Y33420D01*
G01X30862Y33420D01*
G01X31017Y33471D01*
G01X31121Y33628D01*
G01X31172Y33887D01*
G01X31172Y34042D01*
G01X31121Y34304D01*
G01X31017Y34459D01*
G01X30862Y34510D01*
G01X30758Y34510D01*
G01X31568Y33679D02*
G01X31515Y33628D01*
G01X31568Y33575D01*
G01X31619Y33628D01*
G01X31568Y33679D01*
G01X32637Y34146D02*
G01X32587Y33991D01*
G01X32483Y33887D01*
G01X32325Y33836D01*
G01X32274Y33836D01*
G01X32119Y33887D01*
G01X32015Y33991D01*
G01X31962Y34146D01*
G01X31962Y34200D01*
G01X32015Y34355D01*
G01X32119Y34459D01*
G01X32274Y34510D01*
G01X32325Y34510D01*
G01X32483Y34459D01*
G01X32587Y34355D01*
G01X32637Y34146D01*
G01X32637Y33887D01*
G01X32587Y33628D01*
G01X32483Y33471D01*
G01X32325Y33420D01*
G01X32223Y33420D01*
G01X32066Y33471D01*
G01X32015Y33575D01*
G01X33605Y34355D02*
G01X33552Y34459D01*
G01X33397Y34510D01*
G01X33293Y34510D01*
G01X33138Y34459D01*
G01X33034Y34304D01*
G01X32980Y34042D01*
G01X32980Y33783D01*
G01X33034Y33575D01*
G01X33138Y33471D01*
G01X33293Y33420D01*
G01X33344Y33420D01*
G01X33501Y33471D01*
G01X33605Y33575D01*
G01X33656Y33732D01*
G01X33656Y33783D01*
G01X33605Y33938D01*
G01X33501Y34042D01*
G01X33344Y34095D01*
G01X33293Y34095D01*
G01X33138Y34042D01*
G01X33034Y33938D01*
G01X32980Y33783D01*
G01X33999Y33057D02*
G01X34934Y33057D01*
G01X35589Y34510D02*
G01X35485Y34459D01*
G01X35381Y34355D01*
G01X35330Y34250D01*
G01X35277Y34095D01*
G01X35277Y33836D01*
G01X35330Y33679D01*
G01X35381Y33575D01*
G01X35485Y33471D01*
G01X35589Y33420D01*
G01X35797Y33420D01*
G01X35901Y33471D01*
G01X36006Y33575D01*
G01X36056Y33679D01*
G01X36110Y33836D01*
G01X36110Y34095D01*
G01X36056Y34250D01*
G01X36006Y34355D01*
G01X35901Y34459D01*
G01X35797Y34510D01*
G01X35589Y34510D01*
G01X36453Y34510D02*
G01X36453Y33420D01*
G01X36453Y33420D02*
G01X37075Y33420D01*
G01X37418Y34510D02*
G01X37418Y33420D01*
G01X37418Y34510D02*
G01X38093Y34510D01*
G01X37418Y33991D02*
G01X37834Y33991D01*
G01X37418Y33420D02*
G01X38093Y33420D01*
G01X38436Y34510D02*
G01X38436Y33420D01*
G01X38436Y34510D02*
G01X38800Y34510D01*
G01X38954Y34459D01*
G01X39059Y34355D01*
G01X39112Y34250D01*
G01X39163Y34095D01*
G01X39163Y33836D01*
G01X39112Y33679D01*
G01X39059Y33575D01*
G01X38954Y33471D01*
G01X38800Y33420D01*
G01X38436Y33420D01*
G54D30*
G01X30332Y28051D02*
G01X30240Y28005D01*
G01X30149Y27913D01*
G01X30103Y27822D01*
G01X30103Y27642D01*
G01X30149Y27550D01*
G01X30240Y27459D01*
G01X30332Y27413D01*
G01X30469Y27367D01*
G01X30695Y27367D01*
G01X30832Y27413D01*
G01X30923Y27459D01*
G01X31012Y27550D01*
G01X31058Y27642D01*
G01X31058Y27822D01*
G01X31012Y27913D01*
G01X30923Y28005D01*
G01X30832Y28051D01*
G01X30695Y28051D01*
G01X30695Y27822D02*
G01X30695Y28051D01*
G01X30103Y28350D02*
G01X31058Y28350D01*
G01X30103Y28350D02*
G01X31058Y28985D01*
G01X30103Y28985D02*
G01X31058Y28985D01*
G01X30103Y29285D02*
G01X31058Y29285D01*
G01X30103Y29285D02*
G01X30103Y29605D01*
G01X30149Y29740D01*
G01X30240Y29831D01*
G01X30332Y29877D01*
G01X30469Y29923D01*
G01X30695Y29923D01*
G01X30832Y29877D01*
G01X30923Y29831D01*
G01X31012Y29740D01*
G01X31058Y29605D01*
G01X31058Y29285D01*
G01X32606Y27383D02*
G01X33561Y27747D01*
G01X32606Y28110D02*
G01X33561Y27747D01*
G01X32832Y29093D02*
G01X32741Y29047D01*
G01X32652Y28956D01*
G01X32606Y28864D01*
G01X32606Y28681D01*
G01X32652Y28593D01*
G01X32741Y28501D01*
G01X32832Y28455D01*
G01X32969Y28410D01*
G01X33195Y28410D01*
G01X33333Y28455D01*
G01X33424Y28501D01*
G01X33515Y28593D01*
G01X33561Y28681D01*
G01X33561Y28864D01*
G01X33515Y28956D01*
G01X33424Y29047D01*
G01X33333Y29093D01*
G01X32832Y30073D02*
G01X32741Y30028D01*
G01X32652Y29936D01*
G01X32606Y29847D01*
G01X32606Y29664D01*
G01X32652Y29573D01*
G01X32741Y29482D01*
G01X32832Y29438D01*
G01X32969Y29393D01*
G01X33195Y29393D01*
G01X33333Y29438D01*
G01X33424Y29482D01*
G01X33515Y29573D01*
G01X33561Y29664D01*
G01X33561Y29847D01*
G01X33515Y29936D01*
G01X33424Y30028D01*
G01X33333Y30073D01*
G01X35281Y28018D02*
G01X35192Y27927D01*
G01X35146Y27792D01*
G01X35146Y27610D01*
G01X35192Y27472D01*
G01X35281Y27383D01*
G01X35372Y27383D01*
G01X35464Y27429D01*
G01X35509Y27472D01*
G01X35555Y27564D01*
G01X35647Y27838D01*
G01X35692Y27927D01*
G01X35735Y27973D01*
G01X35827Y28018D01*
G01X35964Y28018D01*
G01X36055Y27927D01*
G01X36101Y27792D01*
G01X36101Y27610D01*
G01X36055Y27472D01*
G01X35964Y27383D01*
G01X35372Y29001D02*
G01X35281Y28956D01*
G01X35192Y28864D01*
G01X35146Y28773D01*
G01X35146Y28593D01*
G01X35192Y28501D01*
G01X35281Y28410D01*
G01X35372Y28364D01*
G01X35509Y28318D01*
G01X35735Y28318D01*
G01X35873Y28364D01*
G01X35964Y28410D01*
G01X36055Y28501D01*
G01X36101Y28593D01*
G01X36101Y28773D01*
G01X36055Y28864D01*
G01X35964Y28956D01*
G01X35873Y29001D01*
G01X35146Y29301D02*
G01X36101Y29301D01*
G01X36101Y29301D02*
G01X36101Y29847D01*
G01X37821Y28018D02*
G01X37732Y27927D01*
G01X37686Y27792D01*
G01X37686Y27610D01*
G01X37732Y27472D01*
G01X37821Y27383D01*
G01X37912Y27383D01*
G01X38004Y27429D01*
G01X38049Y27472D01*
G01X38095Y27564D01*
G01X38187Y27838D01*
G01X38232Y27927D01*
G01X38275Y27973D01*
G01X38367Y28018D01*
G01X38504Y28018D01*
G01X38595Y27927D01*
G01X38641Y27792D01*
G01X38641Y27610D01*
G01X38595Y27472D01*
G01X38504Y27383D01*
G01X37686Y28318D02*
G01X38641Y28318D01*
G01X37686Y28318D02*
G01X37686Y28638D01*
G01X37732Y28773D01*
G01X37821Y28864D01*
G01X37912Y28910D01*
G01X38049Y28956D01*
G01X38275Y28956D01*
G01X38413Y28910D01*
G01X38504Y28864D01*
G01X38595Y28773D01*
G01X38641Y28638D01*
G01X38641Y28318D01*
G01X37686Y29619D02*
G01X38641Y29255D01*
G01X37686Y29619D02*
G01X38641Y29982D01*
G01X38321Y29393D02*
G01X38321Y29847D01*
G54D27*
G75*
G01X36291Y23377D02*
G03X36288Y23377I-2J150D01*
G01*
G54D28*
G75*
G01X35295Y20779D02*
G03X35290Y20779I-3J200D01*
G01*
G54D10*
G75*
G01X60799Y25747D02*
G03X60794Y25493I-6096J0D01*
G01*
G75*
G01X56227Y25239D02*
G03X56140Y25029I-1524J508D01*
G01*
G75*
G01X8571Y16572D02*
G03X8571Y16572I-1750J0D01*
G01*
G75*
G01X16953Y16572D02*
G03X16953Y16572I-1750J0D01*
G01*
G75*
G01X57311Y15844D02*
G03X57311Y15844I-1750J0D01*
G01*

%LPD*%
G36*
G01X33691Y10417D02*
G01X33491Y10417D01*
G01X33491Y8817D01*
G01X33691Y8817D01*
G01X33691Y10417D01*
G37*

%LPD*%
G36*
G01X33591Y9717D02*
G01X32991Y9717D01*
G01X32991Y9517D01*
G01X33591Y9517D01*
G01X33591Y9717D01*
G37*
M00*
M02*
