G04 Layer: BottomLayer*
G04 EasyEDA v6.3.22, 2020-04-03T23:48:27+02:00*
G04 c84acfee6ada4594b27f9e032ef05081,b454bf58618a4ea094e2924ff918fcb0,10*
G04 Gerber Generator version 0.2*
G04 Scale: 100 percent, Rotated: No, Reflected: No *
G04 Dimensions in millimeters *
G04 leading zeros omitted , absolute positions ,3 integer and 3 decimal *
%FSLAX33Y33*%
%MOMM*%
G90*
G71D02*

%ADD11C,0.159995*%
%ADD14C,0.610006*%
%ADD15C,0.700024*%
%ADD20C,1.524000*%
%ADD21R,1.199998X1.199998*%
%ADD22C,1.199998*%
%ADD23C,1.499997*%
%ADD24C,2.540000*%

%LPD*%
G36*
G01X47240Y35835D02*
G01X47239Y35835D01*
G01X47225Y35834D01*
G01X47210Y35831D01*
G01X47196Y35826D01*
G01X47183Y35818D01*
G01X47171Y35809D01*
G01X47153Y35794D01*
G01X47134Y35781D01*
G01X47113Y35769D01*
G01X47092Y35760D01*
G01X47069Y35753D01*
G01X47046Y35747D01*
G01X47023Y35744D01*
G01X47000Y35743D01*
G01X17999Y35743D01*
G01X17807Y35742D01*
G01X17615Y35739D01*
G01X17423Y35734D01*
G01X17230Y35726D01*
G01X17038Y35717D01*
G01X16846Y35705D01*
G01X16655Y35692D01*
G01X16463Y35676D01*
G01X16272Y35659D01*
G01X16080Y35639D01*
G01X15889Y35617D01*
G01X15698Y35593D01*
G01X15508Y35567D01*
G01X15318Y35539D01*
G01X15128Y35509D01*
G01X14938Y35477D01*
G01X14749Y35443D01*
G01X14560Y35407D01*
G01X14372Y35368D01*
G01X14183Y35328D01*
G01X13996Y35285D01*
G01X13809Y35241D01*
G01X13623Y35195D01*
G01X13436Y35146D01*
G01X13251Y35096D01*
G01X13066Y35043D01*
G01X12881Y34989D01*
G01X12697Y34932D01*
G01X12514Y34874D01*
G01X12332Y34813D01*
G01X12150Y34751D01*
G01X11969Y34687D01*
G01X11788Y34620D01*
G01X11608Y34552D01*
G01X11430Y34482D01*
G01X11251Y34409D01*
G01X11073Y34335D01*
G01X10897Y34260D01*
G01X10721Y34181D01*
G01X10546Y34102D01*
G01X10372Y34020D01*
G01X10199Y33936D01*
G01X10027Y33851D01*
G01X9855Y33764D01*
G01X9685Y33674D01*
G01X9516Y33583D01*
G01X9347Y33490D01*
G01X9180Y33396D01*
G01X9013Y33299D01*
G01X8848Y33201D01*
G01X8684Y33101D01*
G01X8521Y32999D01*
G01X8359Y32896D01*
G01X8198Y32790D01*
G01X8039Y32683D01*
G01X7880Y32574D01*
G01X7723Y32464D01*
G01X7566Y32352D01*
G01X7411Y32238D01*
G01X7258Y32122D01*
G01X7105Y32005D01*
G01X6954Y31886D01*
G01X6804Y31765D01*
G01X6656Y31643D01*
G01X6509Y31519D01*
G01X6363Y31394D01*
G01X6218Y31267D01*
G01X6075Y31139D01*
G01X5933Y31009D01*
G01X5793Y30877D01*
G01X5655Y30744D01*
G01X5517Y30610D01*
G01X5516Y30609D01*
G01X5382Y30471D01*
G01X5249Y30333D01*
G01X5117Y30193D01*
G01X4987Y30051D01*
G01X4859Y29908D01*
G01X4732Y29763D01*
G01X4607Y29617D01*
G01X4483Y29470D01*
G01X4361Y29322D01*
G01X4240Y29172D01*
G01X4121Y29021D01*
G01X4004Y28868D01*
G01X3888Y28715D01*
G01X3774Y28560D01*
G01X3662Y28403D01*
G01X3552Y28246D01*
G01X3443Y28087D01*
G01X3336Y27928D01*
G01X3230Y27767D01*
G01X3127Y27605D01*
G01X3025Y27442D01*
G01X2925Y27278D01*
G01X2827Y27113D01*
G01X2730Y26946D01*
G01X2636Y26779D01*
G01X2543Y26610D01*
G01X2452Y26441D01*
G01X2362Y26271D01*
G01X2275Y26099D01*
G01X2190Y25927D01*
G01X2106Y25754D01*
G01X2024Y25580D01*
G01X1945Y25405D01*
G01X1866Y25229D01*
G01X1791Y25053D01*
G01X1717Y24875D01*
G01X1644Y24696D01*
G01X1574Y24518D01*
G01X1506Y24338D01*
G01X1439Y24157D01*
G01X1375Y23976D01*
G01X1313Y23794D01*
G01X1252Y23612D01*
G01X1194Y23428D01*
G01X1137Y23245D01*
G01X1083Y23060D01*
G01X1030Y22875D01*
G01X980Y22690D01*
G01X931Y22503D01*
G01X885Y22317D01*
G01X841Y22130D01*
G01X798Y21943D01*
G01X758Y21754D01*
G01X719Y21566D01*
G01X683Y21377D01*
G01X649Y21188D01*
G01X617Y20998D01*
G01X587Y20808D01*
G01X559Y20618D01*
G01X533Y20428D01*
G01X509Y20237D01*
G01X487Y20046D01*
G01X467Y19854D01*
G01X450Y19663D01*
G01X434Y19471D01*
G01X421Y19280D01*
G01X409Y19088D01*
G01X400Y18896D01*
G01X392Y18703D01*
G01X387Y18511D01*
G01X384Y18319D01*
G01X383Y18126D01*
G01X384Y17935D01*
G01X387Y17744D01*
G01X392Y17554D01*
G01X399Y17363D01*
G01X408Y17172D01*
G01X420Y16982D01*
G01X433Y16791D01*
G01X449Y16601D01*
G01X466Y16411D01*
G01X486Y16221D01*
G01X507Y16031D01*
G01X531Y15842D01*
G01X556Y15653D01*
G01X584Y15464D01*
G01X614Y15276D01*
G01X645Y15087D01*
G01X679Y14899D01*
G01X715Y14712D01*
G01X752Y14525D01*
G01X792Y14338D01*
G01X834Y14151D01*
G01X878Y13966D01*
G01X924Y13781D01*
G01X971Y13596D01*
G01X1021Y13411D01*
G01X1073Y13227D01*
G01X1126Y13044D01*
G01X1182Y12862D01*
G01X1240Y12680D01*
G01X1299Y12498D01*
G01X1361Y12318D01*
G01X1424Y12138D01*
G01X1489Y11958D01*
G01X1557Y11780D01*
G01X1626Y11602D01*
G01X1697Y11424D01*
G01X1770Y11248D01*
G01X1922Y10898D01*
G01X2001Y10724D01*
G01X2081Y10551D01*
G01X2164Y10379D01*
G01X2248Y10207D01*
G01X2334Y10037D01*
G01X2422Y9868D01*
G01X2512Y9699D01*
G01X2604Y9532D01*
G01X2697Y9365D01*
G01X2792Y9200D01*
G01X2889Y9035D01*
G01X2988Y8872D01*
G01X3088Y8710D01*
G01X3190Y8548D01*
G01X3294Y8388D01*
G01X3400Y8229D01*
G01X3507Y8071D01*
G01X3616Y7915D01*
G01X3727Y7759D01*
G01X3839Y7605D01*
G01X3953Y7451D01*
G01X4069Y7299D01*
G01X4186Y7149D01*
G01X4305Y7000D01*
G01X4426Y6852D01*
G01X4548Y6705D01*
G01X4672Y6559D01*
G01X4797Y6416D01*
G01X4924Y6273D01*
G01X5052Y6132D01*
G01X5182Y5991D01*
G01X5313Y5853D01*
G01X5446Y5716D01*
G01X5580Y5580D01*
G01X5716Y5446D01*
G01X5853Y5313D01*
G01X5991Y5182D01*
G01X6132Y5052D01*
G01X6273Y4924D01*
G01X6416Y4797D01*
G01X6559Y4672D01*
G01X6705Y4548D01*
G01X6852Y4426D01*
G01X7000Y4305D01*
G01X7149Y4186D01*
G01X7299Y4069D01*
G01X7451Y3953D01*
G01X7605Y3839D01*
G01X7759Y3727D01*
G01X7915Y3616D01*
G01X8071Y3507D01*
G01X8229Y3400D01*
G01X8388Y3294D01*
G01X8548Y3190D01*
G01X8710Y3088D01*
G01X8872Y2988D01*
G01X9035Y2889D01*
G01X9200Y2792D01*
G01X9365Y2697D01*
G01X9532Y2604D01*
G01X9699Y2512D01*
G01X9868Y2422D01*
G01X10037Y2334D01*
G01X10207Y2248D01*
G01X10379Y2164D01*
G01X10551Y2081D01*
G01X10724Y2001D01*
G01X10898Y1922D01*
G01X11248Y1770D01*
G01X11424Y1697D01*
G01X11602Y1626D01*
G01X11780Y1557D01*
G01X11958Y1489D01*
G01X12138Y1424D01*
G01X12318Y1361D01*
G01X12498Y1299D01*
G01X12680Y1240D01*
G01X12862Y1182D01*
G01X13044Y1126D01*
G01X13227Y1073D01*
G01X13411Y1021D01*
G01X13596Y971D01*
G01X13781Y924D01*
G01X13966Y878D01*
G01X14151Y834D01*
G01X14338Y792D01*
G01X14525Y752D01*
G01X14712Y715D01*
G01X14899Y679D01*
G01X15087Y645D01*
G01X15276Y614D01*
G01X15464Y584D01*
G01X15653Y556D01*
G01X15842Y531D01*
G01X16031Y507D01*
G01X16221Y486D01*
G01X16411Y466D01*
G01X16601Y449D01*
G01X16791Y433D01*
G01X16982Y420D01*
G01X17172Y408D01*
G01X17363Y399D01*
G01X17554Y392D01*
G01X17744Y387D01*
G01X17935Y384D01*
G01X18126Y383D01*
G01X47127Y383D01*
G01X47154Y382D01*
G01X47182Y377D01*
G01X47208Y370D01*
G01X47234Y359D01*
G01X47248Y354D01*
G01X47262Y351D01*
G01X47277Y350D01*
G01X47278Y350D01*
G01X47469Y353D01*
G01X47659Y358D01*
G01X47850Y366D01*
G01X48041Y375D01*
G01X48231Y386D01*
G01X48422Y400D01*
G01X48612Y415D01*
G01X48802Y432D01*
G01X48992Y452D01*
G01X49182Y473D01*
G01X49371Y497D01*
G01X49560Y523D01*
G01X49749Y551D01*
G01X49937Y580D01*
G01X50125Y612D01*
G01X50313Y646D01*
G01X50501Y681D01*
G01X50688Y719D01*
G01X50875Y759D01*
G01X51061Y801D01*
G01X51247Y845D01*
G01X51432Y891D01*
G01X51617Y938D01*
G01X51801Y988D01*
G01X51985Y1040D01*
G01X52168Y1093D01*
G01X52350Y1149D01*
G01X52532Y1207D01*
G01X52714Y1266D01*
G01X52895Y1328D01*
G01X53074Y1391D01*
G01X53254Y1457D01*
G01X53432Y1524D01*
G01X53610Y1594D01*
G01X53787Y1665D01*
G01X53964Y1738D01*
G01X54139Y1813D01*
G01X54314Y1889D01*
G01X54488Y1968D01*
G01X54661Y2049D01*
G01X54833Y2131D01*
G01X55004Y2215D01*
G01X55174Y2302D01*
G01X55344Y2390D01*
G01X55512Y2480D01*
G01X55680Y2571D01*
G01X55847Y2664D01*
G01X56012Y2759D01*
G01X56176Y2857D01*
G01X56339Y2955D01*
G01X56502Y3056D01*
G01X56663Y3158D01*
G01X56823Y3262D01*
G01X56982Y3368D01*
G01X57140Y3475D01*
G01X57296Y3584D01*
G01X57452Y3695D01*
G01X57606Y3807D01*
G01X57760Y3921D01*
G01X57911Y4037D01*
G01X58062Y4154D01*
G01X58211Y4273D01*
G01X58359Y4393D01*
G01X58506Y4515D01*
G01X58651Y4639D01*
G01X58795Y4764D01*
G01X58938Y4891D01*
G01X59079Y5020D01*
G01X59219Y5149D01*
G01X59358Y5281D01*
G01X59495Y5413D01*
G01X59631Y5547D01*
G01X59765Y5683D01*
G01X59897Y5820D01*
G01X60029Y5959D01*
G01X60158Y6099D01*
G01X60287Y6240D01*
G01X60413Y6383D01*
G01X60539Y6527D01*
G01X60662Y6673D01*
G01X60784Y6819D01*
G01X60905Y6967D01*
G01X61024Y7117D01*
G01X61141Y7267D01*
G01X61257Y7419D01*
G01X61370Y7572D01*
G01X61483Y7726D01*
G01X61594Y7882D01*
G01X61703Y8039D01*
G01X61810Y8197D01*
G01X61916Y8356D01*
G01X62019Y8516D01*
G01X62122Y8677D01*
G01X62222Y8839D01*
G01X62320Y9002D01*
G01X62417Y9167D01*
G01X62512Y9333D01*
G01X62606Y9499D01*
G01X62697Y9666D01*
G01X62787Y9835D01*
G01X62875Y10004D01*
G01X62962Y10175D01*
G01X63045Y10346D01*
G01X63128Y10518D01*
G01X63208Y10691D01*
G01X63287Y10865D01*
G01X63364Y11040D01*
G01X63439Y11215D01*
G01X63512Y11391D01*
G01X63583Y11569D01*
G01X63652Y11747D01*
G01X63719Y11925D01*
G01X63785Y12105D01*
G01X63849Y12284D01*
G01X63910Y12465D01*
G01X63969Y12647D01*
G01X64027Y12829D01*
G01X64083Y13011D01*
G01X64137Y13194D01*
G01X64188Y13378D01*
G01X64238Y13562D01*
G01X64285Y13747D01*
G01X64331Y13932D01*
G01X64375Y14118D01*
G01X64417Y14304D01*
G01X64457Y14491D01*
G01X64494Y14678D01*
G01X64530Y14866D01*
G01X64564Y15054D01*
G01X64595Y15242D01*
G01X64625Y15431D01*
G01X64653Y15619D01*
G01X64678Y15808D01*
G01X64702Y15998D01*
G01X64723Y16187D01*
G01X64743Y16377D01*
G01X64760Y16567D01*
G01X64776Y16757D01*
G01X64789Y16948D01*
G01X64801Y17138D01*
G01X64810Y17329D01*
G01X64817Y17520D01*
G01X64822Y17711D01*
G01X64825Y17901D01*
G01X64826Y18092D01*
G01X64825Y18283D01*
G01X64822Y18474D01*
G01X64817Y18666D01*
G01X64810Y18857D01*
G01X64800Y19047D01*
G01X64789Y19239D01*
G01X64776Y19429D01*
G01X64760Y19620D01*
G01X64743Y19810D01*
G01X64723Y20000D01*
G01X64701Y20190D01*
G01X64678Y20379D01*
G01X64652Y20569D01*
G01X64625Y20758D01*
G01X64595Y20947D01*
G01X64563Y21135D01*
G01X64529Y21323D01*
G01X64494Y21511D01*
G01X64456Y21699D01*
G01X64416Y21886D01*
G01X64374Y22072D01*
G01X64330Y22258D01*
G01X64284Y22443D01*
G01X64236Y22628D01*
G01X64186Y22813D01*
G01X64135Y22997D01*
G01X64081Y23181D01*
G01X64025Y23363D01*
G01X63967Y23545D01*
G01X63907Y23727D01*
G01X63846Y23908D01*
G01X63782Y24088D01*
G01X63716Y24268D01*
G01X63649Y24447D01*
G01X63580Y24625D01*
G01X63509Y24802D01*
G01X63436Y24978D01*
G01X63360Y25154D01*
G01X63283Y25329D01*
G01X63204Y25503D01*
G01X63124Y25676D01*
G01X63041Y25849D01*
G01X62956Y26020D01*
G01X62870Y26191D01*
G01X62782Y26360D01*
G01X62692Y26529D01*
G01X62600Y26696D01*
G01X62506Y26863D01*
G01X62411Y27029D01*
G01X62314Y27193D01*
G01X62215Y27357D01*
G01X62115Y27519D01*
G01X62012Y27681D01*
G01X61908Y27841D01*
G01X61802Y28000D01*
G01X61695Y28158D01*
G01X61585Y28315D01*
G01X61474Y28471D01*
G01X61362Y28625D01*
G01X61248Y28778D01*
G01X61131Y28930D01*
G01X61014Y29081D01*
G01X60895Y29230D01*
G01X60774Y29379D01*
G01X60652Y29526D01*
G01X60528Y29671D01*
G01X60402Y29815D01*
G01X60275Y29958D01*
G01X60147Y30099D01*
G01X60017Y30239D01*
G01X59885Y30378D01*
G01X59752Y30515D01*
G01X59617Y30651D01*
G01X59481Y30785D01*
G01X59344Y30918D01*
G01X59205Y31049D01*
G01X59065Y31179D01*
G01X58923Y31307D01*
G01X58780Y31434D01*
G01X58635Y31560D01*
G01X58490Y31683D01*
G01X58343Y31805D01*
G01X58194Y31926D01*
G01X58045Y32045D01*
G01X57894Y32162D01*
G01X57742Y32277D01*
G01X57588Y32391D01*
G01X57433Y32504D01*
G01X57278Y32614D01*
G01X57121Y32723D01*
G01X56963Y32831D01*
G01X56804Y32936D01*
G01X56643Y33040D01*
G01X56482Y33142D01*
G01X56318Y33243D01*
G01X56155Y33341D01*
G01X55990Y33438D01*
G01X55824Y33533D01*
G01X55658Y33626D01*
G01X55490Y33718D01*
G01X55321Y33807D01*
G01X55151Y33895D01*
G01X54980Y33981D01*
G01X54809Y34065D01*
G01X54636Y34148D01*
G01X54463Y34228D01*
G01X54289Y34307D01*
G01X54114Y34384D01*
G01X53938Y34458D01*
G01X53761Y34531D01*
G01X53584Y34602D01*
G01X53406Y34671D01*
G01X53227Y34738D01*
G01X53047Y34804D01*
G01X52867Y34867D01*
G01X52686Y34928D01*
G01X52504Y34988D01*
G01X52321Y35045D01*
G01X52139Y35100D01*
G01X51955Y35154D01*
G01X51771Y35205D01*
G01X51586Y35255D01*
G01X51402Y35302D01*
G01X51216Y35348D01*
G01X51030Y35391D01*
G01X50843Y35433D01*
G01X50656Y35472D01*
G01X50469Y35510D01*
G01X50281Y35545D01*
G01X50093Y35579D01*
G01X49904Y35610D01*
G01X49715Y35639D01*
G01X49526Y35667D01*
G01X49336Y35692D01*
G01X49147Y35715D01*
G01X48957Y35737D01*
G01X48767Y35756D01*
G01X48577Y35773D01*
G01X48386Y35788D01*
G01X48196Y35801D01*
G01X48005Y35812D01*
G01X47814Y35821D01*
G01X47622Y35828D01*
G01X47431Y35832D01*
G01X47240Y35835D01*
G37*

%LPC*%
G36*
G01X38731Y6444D02*
G01X38675Y6445D01*
G01X38619Y6444D01*
G01X38564Y6441D01*
G01X38508Y6436D01*
G01X38453Y6429D01*
G01X38398Y6420D01*
G01X38343Y6408D01*
G01X38289Y6395D01*
G01X38235Y6381D01*
G01X38182Y6363D01*
G01X38130Y6344D01*
G01X38078Y6324D01*
G01X38027Y6301D01*
G01X37977Y6276D01*
G01X37928Y6250D01*
G01X37880Y6222D01*
G01X37833Y6192D01*
G01X37787Y6160D01*
G01X37742Y6127D01*
G01X37699Y6092D01*
G01X37657Y6055D01*
G01X37615Y6017D01*
G01X37576Y5978D01*
G01X37538Y5937D01*
G01X37502Y5895D01*
G01X37467Y5852D01*
G01X37434Y5806D01*
G01X37402Y5761D01*
G01X37372Y5714D01*
G01X37344Y5666D01*
G01X37318Y5616D01*
G01X37293Y5566D01*
G01X37270Y5515D01*
G01X37249Y5464D01*
G01X37230Y5411D01*
G01X37213Y5358D01*
G01X37198Y5305D01*
G01X37185Y5250D01*
G01X37174Y5196D01*
G01X37165Y5141D01*
G01X37158Y5086D01*
G01X37153Y5030D01*
G01X37150Y4974D01*
G01X37149Y4918D01*
G01X37150Y4863D01*
G01X37153Y4807D01*
G01X37158Y4751D01*
G01X37165Y4696D01*
G01X37174Y4641D01*
G01X37185Y4587D01*
G01X37198Y4532D01*
G01X37213Y4479D01*
G01X37230Y4426D01*
G01X37249Y4373D01*
G01X37270Y4322D01*
G01X37293Y4271D01*
G01X37318Y4220D01*
G01X37344Y4171D01*
G01X37372Y4123D01*
G01X37402Y4076D01*
G01X37434Y4031D01*
G01X37467Y3985D01*
G01X37502Y3942D01*
G01X37538Y3900D01*
G01X37576Y3859D01*
G01X37615Y3820D01*
G01X37657Y3782D01*
G01X37699Y3745D01*
G01X37742Y3710D01*
G01X37787Y3677D01*
G01X37833Y3645D01*
G01X37880Y3615D01*
G01X37928Y3587D01*
G01X37977Y3561D01*
G01X38027Y3536D01*
G01X38078Y3513D01*
G01X38130Y3493D01*
G01X38182Y3474D01*
G01X38235Y3456D01*
G01X38289Y3442D01*
G01X38343Y3429D01*
G01X38398Y3417D01*
G01X38453Y3408D01*
G01X38508Y3401D01*
G01X38564Y3396D01*
G01X38619Y3393D01*
G01X38675Y3392D01*
G01X38731Y3393D01*
G01X38786Y3396D01*
G01X38842Y3401D01*
G01X38898Y3408D01*
G01X38952Y3417D01*
G01X39007Y3429D01*
G01X39061Y3442D01*
G01X39115Y3456D01*
G01X39168Y3474D01*
G01X39220Y3493D01*
G01X39272Y3513D01*
G01X39323Y3536D01*
G01X39373Y3561D01*
G01X39422Y3587D01*
G01X39470Y3615D01*
G01X39517Y3645D01*
G01X39563Y3677D01*
G01X39608Y3710D01*
G01X39651Y3745D01*
G01X39694Y3782D01*
G01X39735Y3820D01*
G01X39774Y3859D01*
G01X39812Y3900D01*
G01X39849Y3942D01*
G01X39883Y3985D01*
G01X39917Y4031D01*
G01X39948Y4076D01*
G01X39978Y4123D01*
G01X40007Y4171D01*
G01X40032Y4220D01*
G01X40057Y4271D01*
G01X40080Y4322D01*
G01X40101Y4373D01*
G01X40120Y4426D01*
G01X40137Y4479D01*
G01X40152Y4532D01*
G01X40165Y4587D01*
G01X40176Y4641D01*
G01X40185Y4696D01*
G01X40192Y4751D01*
G01X40198Y4807D01*
G01X40201Y4863D01*
G01X40202Y4918D01*
G01X40201Y4974D01*
G01X40198Y5030D01*
G01X40192Y5086D01*
G01X40185Y5141D01*
G01X40176Y5196D01*
G01X40165Y5250D01*
G01X40152Y5305D01*
G01X40137Y5358D01*
G01X40120Y5411D01*
G01X40101Y5464D01*
G01X40080Y5515D01*
G01X40057Y5566D01*
G01X40007Y5666D01*
G01X39978Y5714D01*
G01X39948Y5761D01*
G01X39917Y5806D01*
G01X39883Y5852D01*
G01X39849Y5895D01*
G01X39812Y5937D01*
G01X39774Y5978D01*
G01X39735Y6017D01*
G01X39694Y6055D01*
G01X39651Y6092D01*
G01X39608Y6127D01*
G01X39563Y6160D01*
G01X39517Y6192D01*
G01X39470Y6222D01*
G01X39422Y6250D01*
G01X39373Y6276D01*
G01X39323Y6301D01*
G01X39272Y6324D01*
G01X39220Y6344D01*
G01X39168Y6363D01*
G01X39115Y6381D01*
G01X39061Y6395D01*
G01X39007Y6408D01*
G01X38952Y6420D01*
G01X38898Y6429D01*
G01X38842Y6436D01*
G01X38786Y6441D01*
G01X38731Y6444D01*
G37*
G36*
G01X32099Y32557D02*
G01X30075Y32557D01*
G01X30048Y32556D01*
G01X30022Y32553D01*
G01X29996Y32548D01*
G01X29971Y32541D01*
G01X29946Y32532D01*
G01X29922Y32521D01*
G01X29899Y32508D01*
G01X29877Y32493D01*
G01X29856Y32477D01*
G01X29837Y32459D01*
G01X27160Y29782D01*
G01X27141Y29762D01*
G01X27125Y29741D01*
G01X27110Y29720D01*
G01X27098Y29697D01*
G01X27087Y29673D01*
G01X27077Y29648D01*
G01X27070Y29623D01*
G01X27065Y29597D01*
G01X27062Y29570D01*
G01X27061Y29544D01*
G01X27061Y9389D01*
G01X27062Y9362D01*
G01X27065Y9336D01*
G01X27070Y9310D01*
G01X27077Y9285D01*
G01X27087Y9260D01*
G01X27098Y9236D01*
G01X27110Y9213D01*
G01X27125Y9191D01*
G01X27141Y9170D01*
G01X28088Y8223D01*
G01X28099Y8210D01*
G01X28107Y8197D01*
G01X28113Y8182D01*
G01X28116Y8167D01*
G01X28118Y8150D01*
G01X28117Y8136D01*
G01X28114Y8122D01*
G01X28109Y8108D01*
G01X28102Y8096D01*
G01X28093Y8084D01*
G01X28083Y8074D01*
G01X28071Y8065D01*
G01X28058Y8058D01*
G01X28045Y8053D01*
G01X28030Y8050D01*
G01X28016Y8049D01*
G01X25547Y8049D01*
G01X25531Y8050D01*
G01X25515Y8054D01*
G01X25501Y8060D01*
G01X25487Y8069D01*
G01X25475Y8079D01*
G01X25349Y8204D01*
G01X25330Y8223D01*
G01X25309Y8239D01*
G01X25287Y8254D01*
G01X25264Y8266D01*
G01X25241Y8277D01*
G01X25216Y8287D01*
G01X25190Y8294D01*
G01X25164Y8299D01*
G01X25138Y8302D01*
G01X25111Y8303D01*
G01X15022Y8303D01*
G01X15007Y8304D01*
G01X14993Y8307D01*
G01X14978Y8313D01*
G01X14965Y8321D01*
G01X14954Y8330D01*
G01X14943Y8341D01*
G01X14935Y8354D01*
G01X14928Y8367D01*
G01X14924Y8382D01*
G01X14921Y8396D01*
G01X14917Y8432D01*
G01X14911Y8467D01*
G01X14903Y8502D01*
G01X14893Y8536D01*
G01X14881Y8569D01*
G01X14867Y8602D01*
G01X14851Y8634D01*
G01X14833Y8665D01*
G01X14814Y8695D01*
G01X14770Y8751D01*
G01X14745Y8777D01*
G01X14719Y8801D01*
G01X14692Y8824D01*
G01X14681Y8834D01*
G01X14671Y8846D01*
G01X14663Y8860D01*
G01X14657Y8874D01*
G01X14654Y8889D01*
G01X14653Y8904D01*
G01X14653Y9442D01*
G01X14654Y9457D01*
G01X14657Y9472D01*
G01X14663Y9486D01*
G01X14671Y9500D01*
G01X14681Y9512D01*
G01X14692Y9522D01*
G01X14720Y9545D01*
G01X14746Y9571D01*
G01X14771Y9597D01*
G01X14795Y9625D01*
G01X14816Y9655D01*
G01X14836Y9686D01*
G01X14854Y9718D01*
G01X14870Y9750D01*
G01X14884Y9784D01*
G01X14896Y9819D01*
G01X14905Y9854D01*
G01X14913Y9889D01*
G01X14918Y9925D01*
G01X14922Y9962D01*
G01X14923Y9998D01*
G01X14922Y10034D01*
G01X14919Y10069D01*
G01X14914Y10104D01*
G01X14907Y10138D01*
G01X14898Y10172D01*
G01X14886Y10206D01*
G01X14873Y10239D01*
G01X14859Y10271D01*
G01X14842Y10302D01*
G01X14823Y10332D01*
G01X14803Y10361D01*
G01X14781Y10388D01*
G01X14757Y10415D01*
G01X14733Y10439D01*
G01X14706Y10463D01*
G01X14679Y10485D01*
G01X14650Y10505D01*
G01X14620Y10524D01*
G01X14589Y10541D01*
G01X14557Y10555D01*
G01X14524Y10568D01*
G01X14490Y10580D01*
G01X14456Y10589D01*
G01X14422Y10596D01*
G01X14387Y10601D01*
G01X14352Y10604D01*
G01X14316Y10605D01*
G01X14281Y10604D01*
G01X14246Y10601D01*
G01X14211Y10596D01*
G01X14177Y10589D01*
G01X14143Y10580D01*
G01X14109Y10568D01*
G01X14076Y10555D01*
G01X14044Y10541D01*
G01X14013Y10524D01*
G01X13983Y10505D01*
G01X13954Y10485D01*
G01X13927Y10463D01*
G01X13900Y10439D01*
G01X13876Y10415D01*
G01X13852Y10388D01*
G01X13830Y10361D01*
G01X13810Y10332D01*
G01X13791Y10302D01*
G01X13774Y10271D01*
G01X13760Y10239D01*
G01X13747Y10206D01*
G01X13735Y10172D01*
G01X13726Y10138D01*
G01X13719Y10104D01*
G01X13714Y10069D01*
G01X13711Y10034D01*
G01X13710Y9998D01*
G01X13711Y9962D01*
G01X13715Y9925D01*
G01X13720Y9889D01*
G01X13728Y9854D01*
G01X13737Y9819D01*
G01X13749Y9784D01*
G01X13763Y9750D01*
G01X13779Y9718D01*
G01X13797Y9686D01*
G01X13817Y9655D01*
G01X13838Y9625D01*
G01X13862Y9597D01*
G01X13887Y9571D01*
G01X13913Y9545D01*
G01X13941Y9522D01*
G01X13952Y9512D01*
G01X13962Y9500D01*
G01X13970Y9486D01*
G01X13976Y9472D01*
G01X13979Y9457D01*
G01X13980Y9442D01*
G01X13980Y8904D01*
G01X13979Y8889D01*
G01X13976Y8874D01*
G01X13970Y8860D01*
G01X13962Y8846D01*
G01X13952Y8834D01*
G01X13941Y8824D01*
G01X13913Y8801D01*
G01X13887Y8775D01*
G01X13862Y8749D01*
G01X13838Y8721D01*
G01X13817Y8691D01*
G01X13797Y8660D01*
G01X13779Y8628D01*
G01X13763Y8596D01*
G01X13749Y8562D01*
G01X13737Y8527D01*
G01X13728Y8492D01*
G01X13720Y8457D01*
G01X13715Y8421D01*
G01X13711Y8384D01*
G01X13710Y8347D01*
G01X13711Y8312D01*
G01X13714Y8277D01*
G01X13719Y8242D01*
G01X13726Y8208D01*
G01X13735Y8174D01*
G01X13747Y8140D01*
G01X13760Y8107D01*
G01X13774Y8075D01*
G01X13791Y8044D01*
G01X13810Y8014D01*
G01X13830Y7985D01*
G01X13852Y7958D01*
G01X13876Y7931D01*
G01X13900Y7907D01*
G01X13927Y7883D01*
G01X13954Y7861D01*
G01X13983Y7841D01*
G01X14013Y7822D01*
G01X14044Y7805D01*
G01X14076Y7791D01*
G01X14109Y7778D01*
G01X14143Y7766D01*
G01X14177Y7757D01*
G01X14211Y7750D01*
G01X14246Y7745D01*
G01X14281Y7742D01*
G01X14316Y7741D01*
G01X14353Y7742D01*
G01X14389Y7745D01*
G01X14400Y7746D01*
G01X14416Y7745D01*
G01X14430Y7741D01*
G01X14445Y7736D01*
G01X14458Y7728D01*
G01X14491Y7701D01*
G01X14513Y7685D01*
G01X14537Y7671D01*
G01X14562Y7658D01*
G01X14588Y7648D01*
G01X14615Y7640D01*
G01X14642Y7635D01*
G01X14670Y7631D01*
G01X14697Y7630D01*
G01X24930Y7630D01*
G01X24946Y7629D01*
G01X24962Y7625D01*
G01X24976Y7619D01*
G01X24990Y7610D01*
G01X25002Y7600D01*
G01X25128Y7475D01*
G01X25147Y7456D01*
G01X25168Y7440D01*
G01X25190Y7425D01*
G01X25213Y7413D01*
G01X25236Y7402D01*
G01X25261Y7392D01*
G01X25287Y7385D01*
G01X25313Y7380D01*
G01X25339Y7377D01*
G01X25365Y7376D01*
G01X28868Y7376D01*
G01X28884Y7375D01*
G01X28899Y7371D01*
G01X28914Y7365D01*
G01X28928Y7357D01*
G01X28940Y7347D01*
G01X29823Y6471D01*
G01X29833Y6459D01*
G01X29842Y6445D01*
G01X29848Y6430D01*
G01X29852Y6415D01*
G01X29853Y6399D01*
G01X29852Y6385D01*
G01X29849Y6370D01*
G01X29844Y6357D01*
G01X29837Y6344D01*
G01X29828Y6332D01*
G01X29818Y6322D01*
G01X29806Y6313D01*
G01X29794Y6306D01*
G01X29780Y6301D01*
G01X29766Y6298D01*
G01X29752Y6297D01*
G01X29737Y6298D01*
G01X29723Y6301D01*
G01X29709Y6306D01*
G01X29655Y6330D01*
G01X29599Y6352D01*
G01X29543Y6371D01*
G01X29486Y6389D01*
G01X29428Y6403D01*
G01X29370Y6416D01*
G01X29311Y6426D01*
G01X29252Y6434D01*
G01X29193Y6440D01*
G01X29133Y6444D01*
G01X29074Y6445D01*
G01X29018Y6444D01*
G01X28963Y6441D01*
G01X28907Y6436D01*
G01X28851Y6429D01*
G01X28797Y6420D01*
G01X28742Y6408D01*
G01X28688Y6395D01*
G01X28634Y6381D01*
G01X28581Y6363D01*
G01X28529Y6344D01*
G01X28477Y6324D01*
G01X28426Y6301D01*
G01X28376Y6276D01*
G01X28327Y6250D01*
G01X28279Y6222D01*
G01X28232Y6192D01*
G01X28186Y6160D01*
G01X28141Y6127D01*
G01X28098Y6092D01*
G01X28055Y6055D01*
G01X28014Y6017D01*
G01X27975Y5978D01*
G01X27937Y5937D01*
G01X27900Y5895D01*
G01X27866Y5852D01*
G01X27832Y5806D01*
G01X27801Y5761D01*
G01X27771Y5714D01*
G01X27742Y5666D01*
G01X27692Y5566D01*
G01X27669Y5515D01*
G01X27648Y5464D01*
G01X27629Y5411D01*
G01X27612Y5358D01*
G01X27597Y5305D01*
G01X27584Y5250D01*
G01X27573Y5196D01*
G01X27564Y5141D01*
G01X27556Y5086D01*
G01X27551Y5030D01*
G01X27548Y4974D01*
G01X27547Y4918D01*
G01X27548Y4863D01*
G01X27551Y4807D01*
G01X27556Y4751D01*
G01X27564Y4696D01*
G01X27573Y4641D01*
G01X27584Y4587D01*
G01X27597Y4532D01*
G01X27612Y4479D01*
G01X27629Y4426D01*
G01X27648Y4373D01*
G01X27669Y4322D01*
G01X27692Y4271D01*
G01X27717Y4220D01*
G01X27742Y4171D01*
G01X27771Y4123D01*
G01X27801Y4076D01*
G01X27832Y4031D01*
G01X27866Y3985D01*
G01X27900Y3942D01*
G01X27937Y3900D01*
G01X27975Y3859D01*
G01X28014Y3820D01*
G01X28055Y3782D01*
G01X28098Y3745D01*
G01X28141Y3710D01*
G01X28186Y3677D01*
G01X28232Y3645D01*
G01X28279Y3615D01*
G01X28327Y3587D01*
G01X28376Y3561D01*
G01X28426Y3536D01*
G01X28477Y3513D01*
G01X28529Y3493D01*
G01X28581Y3474D01*
G01X28634Y3456D01*
G01X28688Y3442D01*
G01X28742Y3429D01*
G01X28797Y3417D01*
G01X28851Y3408D01*
G01X28907Y3401D01*
G01X28963Y3396D01*
G01X29018Y3393D01*
G01X29074Y3392D01*
G01X29130Y3393D01*
G01X29185Y3396D01*
G01X29241Y3401D01*
G01X29296Y3408D01*
G01X29351Y3417D01*
G01X29406Y3429D01*
G01X29460Y3442D01*
G01X29514Y3456D01*
G01X29567Y3474D01*
G01X29619Y3493D01*
G01X29671Y3513D01*
G01X29722Y3536D01*
G01X29772Y3561D01*
G01X29821Y3587D01*
G01X29869Y3615D01*
G01X29916Y3645D01*
G01X29962Y3677D01*
G01X30007Y3710D01*
G01X30050Y3745D01*
G01X30092Y3782D01*
G01X30134Y3820D01*
G01X30173Y3859D01*
G01X30211Y3900D01*
G01X30247Y3942D01*
G01X30282Y3985D01*
G01X30315Y4031D01*
G01X30347Y4076D01*
G01X30377Y4123D01*
G01X30405Y4171D01*
G01X30431Y4220D01*
G01X30456Y4271D01*
G01X30479Y4322D01*
G01X30500Y4373D01*
G01X30519Y4426D01*
G01X30536Y4479D01*
G01X30551Y4532D01*
G01X30564Y4587D01*
G01X30575Y4641D01*
G01X30584Y4696D01*
G01X30591Y4751D01*
G01X30596Y4807D01*
G01X30599Y4863D01*
G01X30600Y4918D01*
G01X30599Y4974D01*
G01X30596Y5030D01*
G01X30591Y5086D01*
G01X30584Y5141D01*
G01X30575Y5196D01*
G01X30564Y5250D01*
G01X30551Y5305D01*
G01X30536Y5358D01*
G01X30519Y5411D01*
G01X30500Y5464D01*
G01X30479Y5515D01*
G01X30456Y5567D01*
G01X30451Y5580D01*
G01X30448Y5595D01*
G01X30447Y5609D01*
G01X30448Y5624D01*
G01X30451Y5638D01*
G01X30456Y5652D01*
G01X30463Y5665D01*
G01X30471Y5676D01*
G01X30482Y5687D01*
G01X30493Y5695D01*
G01X30506Y5702D01*
G01X30520Y5707D01*
G01X30533Y5710D01*
G01X30548Y5711D01*
G01X30564Y5710D01*
G01X30579Y5706D01*
G01X30594Y5700D01*
G01X30608Y5692D01*
G01X30620Y5682D01*
G01X30908Y5396D01*
G01X30918Y5384D01*
G01X30927Y5370D01*
G01X30933Y5355D01*
G01X30937Y5340D01*
G01X30938Y5324D01*
G01X30936Y5305D01*
G01X30931Y5287D01*
G01X30915Y5243D01*
G01X30901Y5197D01*
G01X30889Y5152D01*
G01X30879Y5106D01*
G01X30871Y5059D01*
G01X30866Y5012D01*
G01X30863Y4966D01*
G01X30862Y4918D01*
G01X30863Y4872D01*
G01X30866Y4826D01*
G01X30871Y4779D01*
G01X30878Y4734D01*
G01X30888Y4688D01*
G01X30900Y4643D01*
G01X30913Y4598D01*
G01X30929Y4555D01*
G01X30947Y4512D01*
G01X30967Y4470D01*
G01X30989Y4429D01*
G01X31012Y4389D01*
G01X31037Y4350D01*
G01X31065Y4312D01*
G01X31094Y4275D01*
G01X31124Y4240D01*
G01X31156Y4207D01*
G01X31190Y4175D01*
G01X31225Y4144D01*
G01X31261Y4115D01*
G01X31299Y4088D01*
G01X31338Y4063D01*
G01X31378Y4039D01*
G01X31419Y4017D01*
G01X31461Y3997D01*
G01X31504Y3980D01*
G01X31548Y3964D01*
G01X31593Y3950D01*
G01X31637Y3939D01*
G01X31683Y3929D01*
G01X31729Y3922D01*
G01X31775Y3916D01*
G01X31821Y3913D01*
G01X31868Y3912D01*
G01X31914Y3913D01*
G01X31959Y3916D01*
G01X32004Y3921D01*
G01X32049Y3928D01*
G01X32094Y3938D01*
G01X32138Y3949D01*
G01X32182Y3962D01*
G01X32225Y3977D01*
G01X32267Y3994D01*
G01X32308Y4013D01*
G01X32349Y4034D01*
G01X32389Y4057D01*
G01X32427Y4081D01*
G01X32464Y4108D01*
G01X32500Y4136D01*
G01X32535Y4165D01*
G01X32568Y4196D01*
G01X32600Y4228D01*
G01X32631Y4262D01*
G01X32660Y4297D01*
G01X32687Y4334D01*
G01X32713Y4372D01*
G01X32737Y4410D01*
G01X32759Y4450D01*
G01X32779Y4491D01*
G01X32786Y4503D01*
G01X32795Y4515D01*
G01X32805Y4525D01*
G01X32817Y4534D01*
G01X32830Y4541D01*
G01X32843Y4546D01*
G01X32857Y4549D01*
G01X32871Y4550D01*
G01X32885Y4549D01*
G01X32900Y4546D01*
G01X32913Y4541D01*
G01X32926Y4534D01*
G01X32937Y4525D01*
G01X32947Y4515D01*
G01X32956Y4503D01*
G01X32963Y4491D01*
G01X32983Y4450D01*
G01X33006Y4410D01*
G01X33030Y4372D01*
G01X33055Y4334D01*
G01X33083Y4297D01*
G01X33111Y4262D01*
G01X33142Y4228D01*
G01X33174Y4196D01*
G01X33207Y4165D01*
G01X33242Y4136D01*
G01X33278Y4108D01*
G01X33316Y4081D01*
G01X33354Y4057D01*
G01X33393Y4034D01*
G01X33434Y4013D01*
G01X33476Y3994D01*
G01X33518Y3977D01*
G01X33561Y3962D01*
G01X33604Y3949D01*
G01X33648Y3938D01*
G01X33693Y3928D01*
G01X33738Y3921D01*
G01X33784Y3916D01*
G01X33829Y3913D01*
G01X33874Y3912D01*
G01X33920Y3913D01*
G01X33965Y3916D01*
G01X34010Y3921D01*
G01X34055Y3928D01*
G01X34143Y3948D01*
G01X34186Y3961D01*
G01X34229Y3976D01*
G01X34271Y3993D01*
G01X34312Y4012D01*
G01X34353Y4033D01*
G01X34392Y4055D01*
G01X34430Y4079D01*
G01X34467Y4105D01*
G01X34503Y4133D01*
G01X34538Y4162D01*
G01X34571Y4192D01*
G01X34603Y4224D01*
G01X34633Y4258D01*
G01X34662Y4293D01*
G01X34690Y4329D01*
G01X34716Y4366D01*
G01X34740Y4404D01*
G01X34748Y4417D01*
G01X34758Y4427D01*
G01X34771Y4436D01*
G01X34783Y4444D01*
G01X34798Y4450D01*
G01X34812Y4453D01*
G01X34827Y4454D01*
G01X34842Y4453D01*
G01X34856Y4450D01*
G01X34871Y4444D01*
G01X34883Y4436D01*
G01X34896Y4427D01*
G01X34906Y4417D01*
G01X34914Y4404D01*
G01X34938Y4366D01*
G01X34964Y4329D01*
G01X34992Y4293D01*
G01X35021Y4258D01*
G01X35051Y4224D01*
G01X35083Y4192D01*
G01X35116Y4162D01*
G01X35151Y4133D01*
G01X35187Y4105D01*
G01X35224Y4079D01*
G01X35262Y4055D01*
G01X35301Y4033D01*
G01X35342Y4012D01*
G01X35383Y3993D01*
G01X35425Y3976D01*
G01X35468Y3961D01*
G01X35511Y3948D01*
G01X35599Y3928D01*
G01X35644Y3921D01*
G01X35689Y3916D01*
G01X35734Y3913D01*
G01X35779Y3912D01*
G01X35826Y3913D01*
G01X35872Y3916D01*
G01X35919Y3922D01*
G01X35964Y3929D01*
G01X36010Y3939D01*
G01X36055Y3950D01*
G01X36100Y3964D01*
G01X36143Y3980D01*
G01X36186Y3997D01*
G01X36228Y4017D01*
G01X36269Y4039D01*
G01X36309Y4063D01*
G01X36348Y4088D01*
G01X36386Y4115D01*
G01X36423Y4144D01*
G01X36458Y4175D01*
G01X36491Y4207D01*
G01X36523Y4240D01*
G01X36554Y4275D01*
G01X36583Y4312D01*
G01X36610Y4350D01*
G01X36635Y4389D01*
G01X36659Y4429D01*
G01X36681Y4470D01*
G01X36700Y4512D01*
G01X36718Y4555D01*
G01X36734Y4598D01*
G01X36748Y4643D01*
G01X36759Y4688D01*
G01X36769Y4734D01*
G01X36776Y4779D01*
G01X36782Y4826D01*
G01X36785Y4872D01*
G01X36786Y4918D01*
G01X36785Y4965D01*
G01X36782Y5011D01*
G01X36776Y5058D01*
G01X36769Y5103D01*
G01X36759Y5149D01*
G01X36748Y5194D01*
G01X36734Y5239D01*
G01X36718Y5282D01*
G01X36700Y5325D01*
G01X36681Y5367D01*
G01X36659Y5408D01*
G01X36635Y5448D01*
G01X36610Y5487D01*
G01X36583Y5525D01*
G01X36554Y5562D01*
G01X36523Y5597D01*
G01X36491Y5630D01*
G01X36458Y5662D01*
G01X36423Y5693D01*
G01X36386Y5722D01*
G01X36348Y5749D01*
G01X36309Y5774D01*
G01X36269Y5798D01*
G01X36228Y5820D01*
G01X36186Y5839D01*
G01X36143Y5857D01*
G01X36100Y5873D01*
G01X36055Y5887D01*
G01X36010Y5898D01*
G01X35964Y5908D01*
G01X35919Y5915D01*
G01X35872Y5921D01*
G01X35826Y5924D01*
G01X35779Y5925D01*
G01X35734Y5924D01*
G01X35689Y5921D01*
G01X35644Y5916D01*
G01X35599Y5909D01*
G01X35511Y5889D01*
G01X35468Y5876D01*
G01X35425Y5861D01*
G01X35383Y5844D01*
G01X35342Y5825D01*
G01X35301Y5804D01*
G01X35262Y5782D01*
G01X35224Y5758D01*
G01X35187Y5732D01*
G01X35151Y5704D01*
G01X35116Y5675D01*
G01X35083Y5645D01*
G01X35051Y5613D01*
G01X35021Y5579D01*
G01X34992Y5544D01*
G01X34964Y5508D01*
G01X34938Y5471D01*
G01X34914Y5433D01*
G01X34906Y5420D01*
G01X34896Y5410D01*
G01X34883Y5401D01*
G01X34871Y5393D01*
G01X34856Y5387D01*
G01X34842Y5384D01*
G01X34827Y5383D01*
G01X34812Y5384D01*
G01X34798Y5387D01*
G01X34783Y5393D01*
G01X34771Y5401D01*
G01X34758Y5410D01*
G01X34748Y5420D01*
G01X34740Y5433D01*
G01X34716Y5471D01*
G01X34690Y5508D01*
G01X34662Y5544D01*
G01X34633Y5579D01*
G01X34603Y5613D01*
G01X34571Y5645D01*
G01X34538Y5675D01*
G01X34503Y5704D01*
G01X34467Y5732D01*
G01X34430Y5758D01*
G01X34392Y5782D01*
G01X34353Y5804D01*
G01X34312Y5825D01*
G01X34271Y5844D01*
G01X34229Y5861D01*
G01X34186Y5876D01*
G01X34143Y5889D01*
G01X34055Y5909D01*
G01X34010Y5916D01*
G01X33965Y5921D01*
G01X33920Y5924D01*
G01X33874Y5925D01*
G01X33829Y5924D01*
G01X33784Y5921D01*
G01X33738Y5916D01*
G01X33693Y5909D01*
G01X33648Y5899D01*
G01X33604Y5888D01*
G01X33561Y5875D01*
G01X33518Y5860D01*
G01X33476Y5843D01*
G01X33434Y5824D01*
G01X33393Y5803D01*
G01X33354Y5780D01*
G01X33316Y5756D01*
G01X33278Y5729D01*
G01X33242Y5701D01*
G01X33207Y5672D01*
G01X33174Y5641D01*
G01X33142Y5609D01*
G01X33111Y5575D01*
G01X33083Y5540D01*
G01X33055Y5503D01*
G01X33030Y5465D01*
G01X33006Y5426D01*
G01X32983Y5387D01*
G01X32963Y5346D01*
G01X32956Y5334D01*
G01X32947Y5322D01*
G01X32937Y5312D01*
G01X32926Y5303D01*
G01X32913Y5296D01*
G01X32900Y5291D01*
G01X32885Y5288D01*
G01X32871Y5287D01*
G01X32857Y5288D01*
G01X32843Y5291D01*
G01X32830Y5296D01*
G01X32817Y5303D01*
G01X32805Y5312D01*
G01X32795Y5322D01*
G01X32786Y5334D01*
G01X32779Y5346D01*
G01X32759Y5387D01*
G01X32737Y5426D01*
G01X32713Y5465D01*
G01X32687Y5503D01*
G01X32660Y5540D01*
G01X32631Y5575D01*
G01X32600Y5609D01*
G01X32568Y5641D01*
G01X32535Y5672D01*
G01X32500Y5701D01*
G01X32464Y5729D01*
G01X32427Y5756D01*
G01X32389Y5780D01*
G01X32349Y5803D01*
G01X32308Y5824D01*
G01X32267Y5843D01*
G01X32225Y5860D01*
G01X32182Y5875D01*
G01X32138Y5888D01*
G01X32094Y5899D01*
G01X32049Y5909D01*
G01X32004Y5916D01*
G01X31959Y5921D01*
G01X31914Y5924D01*
G01X31868Y5925D01*
G01X31820Y5924D01*
G01X31773Y5920D01*
G01X31725Y5915D01*
G01X31678Y5907D01*
G01X31632Y5897D01*
G01X31585Y5885D01*
G01X31540Y5870D01*
G01X31496Y5854D01*
G01X31477Y5848D01*
G01X31458Y5847D01*
G01X31442Y5848D01*
G01X31426Y5851D01*
G01X31412Y5857D01*
G01X31398Y5866D01*
G01X31386Y5876D01*
G01X27764Y9499D01*
G01X27754Y9511D01*
G01X27745Y9524D01*
G01X27739Y9539D01*
G01X27735Y9554D01*
G01X27734Y9570D01*
G01X27734Y29362D01*
G01X27735Y29378D01*
G01X27739Y29394D01*
G01X27745Y29409D01*
G01X27754Y29422D01*
G01X27764Y29434D01*
G01X29952Y31622D01*
G01X29964Y31633D01*
G01X29978Y31641D01*
G01X29992Y31647D01*
G01X30008Y31650D01*
G01X30024Y31652D01*
G01X30128Y31652D01*
G01X30128Y31756D01*
G01X30130Y31772D01*
G01X30133Y31788D01*
G01X30139Y31802D01*
G01X30147Y31816D01*
G01X30158Y31828D01*
G01X30184Y31855D01*
G01X30197Y31865D01*
G01X30210Y31873D01*
G01X30225Y31880D01*
G01X30240Y31883D01*
G01X30256Y31885D01*
G01X30915Y31885D01*
G01X30930Y31883D01*
G01X30944Y31880D01*
G01X30958Y31875D01*
G01X30970Y31868D01*
G01X30982Y31860D01*
G01X30992Y31849D01*
G01X31001Y31838D01*
G01X31008Y31825D01*
G01X31013Y31812D01*
G01X31016Y31797D01*
G01X31017Y31783D01*
G01X31017Y31652D01*
G01X31489Y31652D01*
G01X31446Y31731D01*
G01X31439Y31747D01*
G01X31434Y31765D01*
G01X31432Y31783D01*
G01X31433Y31797D01*
G01X31436Y31812D01*
G01X31441Y31825D01*
G01X31448Y31838D01*
G01X31457Y31849D01*
G01X31467Y31860D01*
G01X31479Y31868D01*
G01X31491Y31875D01*
G01X31505Y31880D01*
G01X31519Y31883D01*
G01X31534Y31885D01*
G01X31918Y31885D01*
G01X31933Y31883D01*
G01X31949Y31880D01*
G01X31964Y31873D01*
G01X31977Y31865D01*
G01X31989Y31855D01*
G01X32146Y31698D01*
G01X32156Y31686D01*
G01X32165Y31673D01*
G01X32171Y31658D01*
G01X32174Y31642D01*
G01X32175Y31627D01*
G01X32174Y31607D01*
G01X32168Y31588D01*
G01X32151Y31543D01*
G01X32136Y31497D01*
G01X32123Y31449D01*
G01X32113Y31402D01*
G01X32105Y31353D01*
G01X32099Y31305D01*
G01X32095Y31256D01*
G01X32094Y31207D01*
G01X32095Y31162D01*
G01X32098Y31116D01*
G01X32103Y31071D01*
G01X32110Y31026D01*
G01X32119Y30981D01*
G01X32131Y30936D01*
G01X32144Y30893D01*
G01X32159Y30849D01*
G01X32176Y30807D01*
G01X32195Y30766D01*
G01X32216Y30725D01*
G01X32238Y30685D01*
G01X32263Y30646D01*
G01X32289Y30609D01*
G01X32316Y30572D01*
G01X32345Y30537D01*
G01X32376Y30503D01*
G01X32409Y30471D01*
G01X32442Y30440D01*
G01X32477Y30411D01*
G01X32514Y30384D01*
G01X32552Y30357D01*
G01X32590Y30333D01*
G01X32630Y30310D01*
G01X32671Y30290D01*
G01X32712Y30271D01*
G01X32755Y30254D01*
G01X32798Y30239D01*
G01X32842Y30226D01*
G01X32886Y30214D01*
G01X32931Y30205D01*
G01X32976Y30198D01*
G01X33021Y30193D01*
G01X33067Y30190D01*
G01X33112Y30189D01*
G01X33158Y30190D01*
G01X33204Y30193D01*
G01X33249Y30198D01*
G01X33294Y30205D01*
G01X33339Y30214D01*
G01X33384Y30226D01*
G01X33427Y30239D01*
G01X33471Y30254D01*
G01X33513Y30271D01*
G01X33554Y30290D01*
G01X33595Y30310D01*
G01X33635Y30333D01*
G01X33674Y30357D01*
G01X33711Y30384D01*
G01X33747Y30411D01*
G01X33783Y30440D01*
G01X33817Y30471D01*
G01X33849Y30503D01*
G01X33880Y30537D01*
G01X33909Y30572D01*
G01X33936Y30609D01*
G01X33962Y30646D01*
G01X33987Y30685D01*
G01X34010Y30725D01*
G01X34030Y30766D01*
G01X34049Y30807D01*
G01X34066Y30849D01*
G01X34081Y30893D01*
G01X34094Y30936D01*
G01X34106Y30981D01*
G01X34115Y31026D01*
G01X34122Y31071D01*
G01X34127Y31116D01*
G01X34130Y31162D01*
G01X34131Y31207D01*
G01X34130Y31253D01*
G01X34127Y31299D01*
G01X34122Y31344D01*
G01X34115Y31389D01*
G01X34106Y31434D01*
G01X34094Y31478D01*
G01X34081Y31522D01*
G01X34066Y31565D01*
G01X34049Y31608D01*
G01X34030Y31649D01*
G01X34010Y31690D01*
G01X33987Y31730D01*
G01X33962Y31768D01*
G01X33936Y31806D01*
G01X33909Y31842D01*
G01X33880Y31878D01*
G01X33849Y31911D01*
G01X33817Y31944D01*
G01X33783Y31975D01*
G01X33747Y32004D01*
G01X33711Y32031D01*
G01X33674Y32057D01*
G01X33635Y32082D01*
G01X33595Y32104D01*
G01X33554Y32125D01*
G01X33513Y32144D01*
G01X33471Y32161D01*
G01X33427Y32176D01*
G01X33384Y32189D01*
G01X33339Y32201D01*
G01X33294Y32210D01*
G01X33249Y32217D01*
G01X33204Y32222D01*
G01X33158Y32225D01*
G01X33112Y32226D01*
G01X33064Y32225D01*
G01X33015Y32221D01*
G01X32967Y32215D01*
G01X32918Y32207D01*
G01X32871Y32197D01*
G01X32823Y32184D01*
G01X32777Y32169D01*
G01X32731Y32152D01*
G01X32713Y32146D01*
G01X32693Y32145D01*
G01X32678Y32146D01*
G01X32662Y32149D01*
G01X32647Y32155D01*
G01X32634Y32164D01*
G01X32622Y32174D01*
G01X32337Y32459D01*
G01X32317Y32477D01*
G01X32297Y32493D01*
G01X32275Y32508D01*
G01X32252Y32521D01*
G01X32228Y32532D01*
G01X32203Y32541D01*
G01X32178Y32548D01*
G01X32152Y32553D01*
G01X32125Y32556D01*
G01X32099Y32557D01*
G37*
G36*
G01X38957Y15142D02*
G01X36224Y15142D01*
G01X36224Y12409D01*
G01X36533Y12409D01*
G01X36548Y12408D01*
G01X36562Y12405D01*
G01X36576Y12400D01*
G01X36588Y12393D01*
G01X36600Y12384D01*
G01X36610Y12374D01*
G01X36619Y12362D01*
G01X36626Y12350D01*
G01X36631Y12336D01*
G01X36634Y12322D01*
G01X36635Y12307D01*
G01X36634Y12292D01*
G01X36630Y12277D01*
G01X36625Y12264D01*
G01X36618Y12250D01*
G01X36608Y12238D01*
G01X36597Y12228D01*
G01X36585Y12219D01*
G01X36571Y12213D01*
G01X36538Y12199D01*
G01X36505Y12182D01*
G01X36474Y12164D01*
G01X36444Y12144D01*
G01X36416Y12122D01*
G01X36388Y12099D01*
G01X36362Y12074D01*
G01X36337Y12047D01*
G01X36314Y12019D01*
G01X36294Y11990D01*
G01X36274Y11959D01*
G01X36257Y11928D01*
G01X36241Y11895D01*
G01X36227Y11862D01*
G01X36216Y11827D01*
G01X36206Y11793D01*
G01X36199Y11757D01*
G01X36193Y11722D01*
G01X36190Y11686D01*
G01X36189Y11649D01*
G01X36190Y11613D01*
G01X36194Y11576D01*
G01X36199Y11540D01*
G01X36207Y11505D01*
G01X36216Y11470D01*
G01X36228Y11435D01*
G01X36242Y11401D01*
G01X36258Y11369D01*
G01X36276Y11337D01*
G01X36296Y11306D01*
G01X36317Y11276D01*
G01X36341Y11248D01*
G01X36366Y11222D01*
G01X36392Y11196D01*
G01X36420Y11173D01*
G01X36431Y11163D01*
G01X36441Y11151D01*
G01X36449Y11137D01*
G01X36455Y11123D01*
G01X36458Y11108D01*
G01X36459Y11093D01*
G01X36459Y9871D01*
G01X36460Y9845D01*
G01X36463Y9819D01*
G01X36468Y9793D01*
G01X36475Y9767D01*
G01X36485Y9742D01*
G01X36496Y9719D01*
G01X36508Y9696D01*
G01X36523Y9674D01*
G01X36539Y9653D01*
G01X37085Y9107D01*
G01X37106Y9091D01*
G01X37128Y9076D01*
G01X37151Y9064D01*
G01X37174Y9053D01*
G01X37199Y9043D01*
G01X37225Y9036D01*
G01X37251Y9031D01*
G01X37277Y9028D01*
G01X37303Y9027D01*
G01X46139Y9027D01*
G01X46155Y9026D01*
G01X46171Y9022D01*
G01X46185Y9016D01*
G01X46199Y9007D01*
G01X46211Y8997D01*
G01X47668Y7541D01*
G01X47678Y7529D01*
G01X47686Y7515D01*
G01X47692Y7500D01*
G01X47696Y7484D01*
G01X47697Y7469D01*
G01X47696Y7454D01*
G01X47693Y7440D01*
G01X47688Y7426D01*
G01X47681Y7414D01*
G01X47672Y7402D01*
G01X47662Y7392D01*
G01X47650Y7383D01*
G01X47638Y7376D01*
G01X47624Y7371D01*
G01X47610Y7368D01*
G01X47596Y7367D01*
G01X47572Y7370D01*
G01X47525Y7380D01*
G01X47479Y7387D01*
G01X47431Y7393D01*
G01X47384Y7397D01*
G01X47336Y7398D01*
G01X47288Y7397D01*
G01X47240Y7393D01*
G01X47193Y7387D01*
G01X47145Y7379D01*
G01X47098Y7369D01*
G01X47052Y7357D01*
G01X47006Y7343D01*
G01X46961Y7326D01*
G01X46917Y7307D01*
G01X46874Y7286D01*
G01X46831Y7263D01*
G01X46790Y7239D01*
G01X46750Y7212D01*
G01X46712Y7183D01*
G01X46674Y7153D01*
G01X46638Y7121D01*
G01X46626Y7111D01*
G01X46613Y7103D01*
G01X46599Y7098D01*
G01X46584Y7094D01*
G01X46569Y7093D01*
G01X46553Y7094D01*
G01X46537Y7098D01*
G01X46523Y7104D01*
G01X46509Y7113D01*
G01X46497Y7123D01*
G01X44907Y8712D01*
G01X44888Y8731D01*
G01X44867Y8747D01*
G01X44845Y8762D01*
G01X44822Y8774D01*
G01X44799Y8785D01*
G01X44774Y8795D01*
G01X44748Y8802D01*
G01X44722Y8807D01*
G01X44696Y8810D01*
G01X44669Y8811D01*
G01X34945Y8811D01*
G01X34929Y8812D01*
G01X34913Y8816D01*
G01X34899Y8822D01*
G01X34885Y8831D01*
G01X34873Y8841D01*
G01X34495Y9219D01*
G01X34485Y9231D01*
G01X34476Y9245D01*
G01X34470Y9259D01*
G01X34466Y9275D01*
G01X34465Y9291D01*
G01X34465Y11093D01*
G01X34466Y11108D01*
G01X34469Y11123D01*
G01X34475Y11137D01*
G01X34483Y11151D01*
G01X34493Y11163D01*
G01X34504Y11173D01*
G01X34532Y11196D01*
G01X34558Y11222D01*
G01X34583Y11248D01*
G01X34607Y11276D01*
G01X34628Y11306D01*
G01X34648Y11337D01*
G01X34666Y11369D01*
G01X34682Y11401D01*
G01X34696Y11435D01*
G01X34708Y11470D01*
G01X34717Y11505D01*
G01X34725Y11540D01*
G01X34730Y11576D01*
G01X34734Y11613D01*
G01X34735Y11649D01*
G01X34734Y11686D01*
G01X34731Y11722D01*
G01X34725Y11757D01*
G01X34718Y11793D01*
G01X34708Y11827D01*
G01X34697Y11862D01*
G01X34683Y11895D01*
G01X34667Y11928D01*
G01X34650Y11959D01*
G01X34630Y11990D01*
G01X34610Y12019D01*
G01X34587Y12047D01*
G01X34562Y12074D01*
G01X34536Y12099D01*
G01X34508Y12122D01*
G01X34480Y12144D01*
G01X34450Y12164D01*
G01X34419Y12182D01*
G01X34386Y12199D01*
G01X34353Y12213D01*
G01X34317Y12226D01*
G01X34280Y12237D01*
G01X34243Y12245D01*
G01X34205Y12251D01*
G01X34167Y12255D01*
G01X34128Y12256D01*
G01X34090Y12255D01*
G01X34052Y12251D01*
G01X34014Y12245D01*
G01X33977Y12237D01*
G01X33940Y12226D01*
G01X33904Y12213D01*
G01X33870Y12198D01*
G01X33837Y12181D01*
G01X33805Y12163D01*
G01X33774Y12142D01*
G01X33745Y12119D01*
G01X33717Y12095D01*
G01X33691Y12069D01*
G01X33666Y12042D01*
G01X33643Y12013D01*
G01X33622Y11982D01*
G01X33602Y11951D01*
G01X33584Y11918D01*
G01X33576Y11904D01*
G01X33566Y11892D01*
G01X33554Y11881D01*
G01X33540Y11873D01*
G01X33525Y11866D01*
G01X33510Y11863D01*
G01X33493Y11861D01*
G01X33477Y11863D01*
G01X33462Y11866D01*
G01X33447Y11873D01*
G01X33433Y11881D01*
G01X33421Y11892D01*
G01X33411Y11904D01*
G01X33403Y11918D01*
G01X33385Y11951D01*
G01X33365Y11982D01*
G01X33344Y12013D01*
G01X33321Y12042D01*
G01X33296Y12069D01*
G01X33270Y12095D01*
G01X33242Y12119D01*
G01X33213Y12142D01*
G01X33182Y12163D01*
G01X33150Y12181D01*
G01X33117Y12198D01*
G01X33083Y12213D01*
G01X33047Y12226D01*
G01X33010Y12237D01*
G01X32973Y12245D01*
G01X32935Y12251D01*
G01X32897Y12255D01*
G01X32858Y12256D01*
G01X32820Y12255D01*
G01X32782Y12251D01*
G01X32744Y12245D01*
G01X32707Y12237D01*
G01X32670Y12226D01*
G01X32634Y12213D01*
G01X32600Y12198D01*
G01X32567Y12181D01*
G01X32535Y12163D01*
G01X32504Y12142D01*
G01X32475Y12119D01*
G01X32447Y12095D01*
G01X32421Y12069D01*
G01X32396Y12042D01*
G01X32373Y12013D01*
G01X32352Y11982D01*
G01X32332Y11951D01*
G01X32314Y11918D01*
G01X32306Y11904D01*
G01X32296Y11892D01*
G01X32284Y11881D01*
G01X32270Y11873D01*
G01X32255Y11866D01*
G01X32240Y11863D01*
G01X32223Y11861D01*
G01X32207Y11863D01*
G01X32192Y11866D01*
G01X32177Y11873D01*
G01X32163Y11881D01*
G01X32151Y11892D01*
G01X32141Y11904D01*
G01X32133Y11918D01*
G01X32115Y11951D01*
G01X32095Y11982D01*
G01X32074Y12013D01*
G01X32051Y12042D01*
G01X32026Y12069D01*
G01X32000Y12095D01*
G01X31972Y12119D01*
G01X31943Y12142D01*
G01X31912Y12163D01*
G01X31880Y12181D01*
G01X31847Y12198D01*
G01X31813Y12213D01*
G01X31777Y12226D01*
G01X31740Y12237D01*
G01X31703Y12245D01*
G01X31665Y12251D01*
G01X31627Y12255D01*
G01X31588Y12256D01*
G01X31550Y12255D01*
G01X31512Y12251D01*
G01X31474Y12245D01*
G01X31437Y12237D01*
G01X31400Y12226D01*
G01X31364Y12213D01*
G01X31331Y12199D01*
G01X31298Y12182D01*
G01X31267Y12164D01*
G01X31237Y12144D01*
G01X31209Y12122D01*
G01X31181Y12099D01*
G01X31155Y12074D01*
G01X31130Y12047D01*
G01X31107Y12019D01*
G01X31087Y11990D01*
G01X31067Y11959D01*
G01X31050Y11928D01*
G01X31034Y11895D01*
G01X31020Y11862D01*
G01X31009Y11827D01*
G01X30999Y11793D01*
G01X30992Y11757D01*
G01X30986Y11722D01*
G01X30983Y11686D01*
G01X30982Y11649D01*
G01X30983Y11613D01*
G01X30987Y11576D01*
G01X30992Y11540D01*
G01X31000Y11505D01*
G01X31009Y11470D01*
G01X31021Y11435D01*
G01X31035Y11401D01*
G01X31051Y11369D01*
G01X31069Y11337D01*
G01X31089Y11306D01*
G01X31110Y11276D01*
G01X31134Y11248D01*
G01X31159Y11222D01*
G01X31185Y11196D01*
G01X31213Y11173D01*
G01X31224Y11163D01*
G01X31234Y11151D01*
G01X31242Y11137D01*
G01X31248Y11123D01*
G01X31251Y11108D01*
G01X31252Y11093D01*
G01X31252Y7585D01*
G01X31253Y7559D01*
G01X31256Y7533D01*
G01X31261Y7507D01*
G01X31268Y7481D01*
G01X31278Y7456D01*
G01X31289Y7433D01*
G01X31301Y7410D01*
G01X31316Y7388D01*
G01X31332Y7367D01*
G01X31878Y6821D01*
G01X31899Y6805D01*
G01X31921Y6790D01*
G01X31944Y6778D01*
G01X31967Y6767D01*
G01X31992Y6757D01*
G01X32018Y6750D01*
G01X32044Y6745D01*
G01X32070Y6742D01*
G01X32096Y6741D01*
G01X40837Y6741D01*
G01X40853Y6740D01*
G01X40868Y6736D01*
G01X40883Y6730D01*
G01X40897Y6721D01*
G01X40909Y6711D01*
G01X41211Y6409D01*
G01X41220Y6398D01*
G01X41228Y6386D01*
G01X41234Y6372D01*
G01X41238Y6359D01*
G01X41240Y6344D01*
G01X41244Y6298D01*
G01X41251Y6251D01*
G01X41259Y6206D01*
G01X41269Y6161D01*
G01X41282Y6116D01*
G01X41296Y6072D01*
G01X41313Y6028D01*
G01X41331Y5986D01*
G01X41351Y5944D01*
G01X41374Y5903D01*
G01X41397Y5863D01*
G01X41423Y5825D01*
G01X41451Y5788D01*
G01X41480Y5751D01*
G01X41511Y5717D01*
G01X41543Y5684D01*
G01X41577Y5652D01*
G01X41613Y5622D01*
G01X41649Y5593D01*
G01X41688Y5566D01*
G01X41727Y5541D01*
G01X41767Y5518D01*
G01X41808Y5496D01*
G01X41850Y5477D01*
G01X41893Y5460D01*
G01X41937Y5444D01*
G01X41981Y5430D01*
G01X42026Y5418D01*
G01X42072Y5409D01*
G01X42117Y5402D01*
G01X42164Y5397D01*
G01X42210Y5393D01*
G01X42256Y5392D01*
G01X42302Y5393D01*
G01X42348Y5397D01*
G01X42393Y5402D01*
G01X42438Y5409D01*
G01X42483Y5418D01*
G01X42527Y5429D01*
G01X42571Y5442D01*
G01X42615Y5457D01*
G01X42657Y5474D01*
G01X42698Y5493D01*
G01X42739Y5514D01*
G01X42779Y5536D01*
G01X42818Y5561D01*
G01X42855Y5587D01*
G01X42891Y5614D01*
G01X42927Y5644D01*
G01X42961Y5674D01*
G01X42993Y5707D01*
G01X43024Y5740D01*
G01X43053Y5775D01*
G01X43080Y5812D01*
G01X43106Y5850D01*
G01X43131Y5888D01*
G01X43154Y5928D01*
G01X43174Y5969D01*
G01X43193Y6010D01*
G01X43210Y6053D01*
G01X43225Y6096D01*
G01X43238Y6140D01*
G01X43250Y6184D01*
G01X43259Y6229D01*
G01X43266Y6274D01*
G01X43271Y6320D01*
G01X43274Y6365D01*
G01X43275Y6410D01*
G01X43274Y6461D01*
G01X43270Y6511D01*
G01X43264Y6560D01*
G01X43255Y6610D01*
G01X43254Y6629D01*
G01X43255Y6644D01*
G01X43258Y6658D01*
G01X43263Y6672D01*
G01X43269Y6684D01*
G01X43278Y6696D01*
G01X43289Y6706D01*
G01X43300Y6715D01*
G01X43313Y6722D01*
G01X43326Y6727D01*
G01X43341Y6730D01*
G01X43355Y6731D01*
G01X43371Y6730D01*
G01X43386Y6726D01*
G01X43401Y6720D01*
G01X43415Y6711D01*
G01X43427Y6701D01*
G01X43751Y6377D01*
G01X43760Y6366D01*
G01X43768Y6354D01*
G01X43774Y6341D01*
G01X43778Y6327D01*
G01X43780Y6312D01*
G01X43784Y6266D01*
G01X43791Y6220D01*
G01X43799Y6174D01*
G01X43809Y6129D01*
G01X43822Y6084D01*
G01X43836Y6040D01*
G01X43853Y5996D01*
G01X43871Y5954D01*
G01X43891Y5912D01*
G01X43914Y5871D01*
G01X43937Y5832D01*
G01X43963Y5793D01*
G01X43991Y5756D01*
G01X44020Y5720D01*
G01X44051Y5685D01*
G01X44083Y5652D01*
G01X44117Y5620D01*
G01X44153Y5590D01*
G01X44189Y5561D01*
G01X44228Y5534D01*
G01X44267Y5509D01*
G01X44307Y5486D01*
G01X44348Y5465D01*
G01X44390Y5445D01*
G01X44433Y5428D01*
G01X44477Y5412D01*
G01X44521Y5399D01*
G01X44566Y5387D01*
G01X44612Y5377D01*
G01X44657Y5370D01*
G01X44704Y5365D01*
G01X44750Y5361D01*
G01X44796Y5360D01*
G01X44842Y5361D01*
G01X44888Y5365D01*
G01X44933Y5370D01*
G01X44978Y5377D01*
G01X45023Y5386D01*
G01X45067Y5397D01*
G01X45111Y5410D01*
G01X45155Y5425D01*
G01X45197Y5442D01*
G01X45279Y5482D01*
G01X45319Y5505D01*
G01X45358Y5529D01*
G01X45395Y5555D01*
G01X45431Y5582D01*
G01X45467Y5612D01*
G01X45501Y5643D01*
G01X45533Y5675D01*
G01X45564Y5709D01*
G01X45593Y5744D01*
G01X45620Y5780D01*
G01X45646Y5818D01*
G01X45671Y5857D01*
G01X45694Y5896D01*
G01X45714Y5937D01*
G01X45733Y5979D01*
G01X45750Y6021D01*
G01X45765Y6064D01*
G01X45778Y6108D01*
G01X45790Y6152D01*
G01X45799Y6197D01*
G01X45806Y6242D01*
G01X45811Y6288D01*
G01X45814Y6333D01*
G01X45815Y6379D01*
G01X45814Y6427D01*
G01X45810Y6474D01*
G01X45805Y6521D01*
G01X45797Y6568D01*
G01X45788Y6615D01*
G01X45785Y6638D01*
G01X45786Y6653D01*
G01X45789Y6667D01*
G01X45794Y6680D01*
G01X45801Y6693D01*
G01X45809Y6705D01*
G01X45820Y6715D01*
G01X45831Y6723D01*
G01X45844Y6731D01*
G01X45858Y6736D01*
G01X45872Y6739D01*
G01X45886Y6740D01*
G01X45902Y6739D01*
G01X45918Y6735D01*
G01X45932Y6728D01*
G01X45946Y6720D01*
G01X45958Y6710D01*
G01X46291Y6377D01*
G01X46300Y6366D01*
G01X46308Y6354D01*
G01X46314Y6341D01*
G01X46318Y6327D01*
G01X46320Y6312D01*
G01X46324Y6266D01*
G01X46331Y6220D01*
G01X46339Y6174D01*
G01X46349Y6129D01*
G01X46362Y6084D01*
G01X46376Y6040D01*
G01X46393Y5996D01*
G01X46411Y5954D01*
G01X46431Y5912D01*
G01X46454Y5871D01*
G01X46477Y5832D01*
G01X46503Y5793D01*
G01X46531Y5756D01*
G01X46560Y5720D01*
G01X46591Y5685D01*
G01X46623Y5652D01*
G01X46657Y5620D01*
G01X46693Y5590D01*
G01X46729Y5561D01*
G01X46768Y5534D01*
G01X46807Y5509D01*
G01X46847Y5486D01*
G01X46888Y5465D01*
G01X46930Y5445D01*
G01X46973Y5428D01*
G01X47017Y5412D01*
G01X47061Y5399D01*
G01X47106Y5387D01*
G01X47152Y5377D01*
G01X47197Y5370D01*
G01X47244Y5365D01*
G01X47290Y5361D01*
G01X47336Y5360D01*
G01X47382Y5361D01*
G01X47428Y5365D01*
G01X47473Y5370D01*
G01X47518Y5377D01*
G01X47563Y5386D01*
G01X47607Y5397D01*
G01X47651Y5410D01*
G01X47695Y5425D01*
G01X47737Y5442D01*
G01X47819Y5482D01*
G01X47859Y5505D01*
G01X47898Y5529D01*
G01X47935Y5555D01*
G01X47971Y5582D01*
G01X48007Y5612D01*
G01X48041Y5643D01*
G01X48073Y5675D01*
G01X48104Y5709D01*
G01X48133Y5744D01*
G01X48160Y5780D01*
G01X48186Y5818D01*
G01X48211Y5857D01*
G01X48234Y5896D01*
G01X48254Y5937D01*
G01X48273Y5979D01*
G01X48290Y6021D01*
G01X48305Y6064D01*
G01X48318Y6108D01*
G01X48330Y6152D01*
G01X48339Y6197D01*
G01X48346Y6242D01*
G01X48351Y6288D01*
G01X48354Y6333D01*
G01X48355Y6379D01*
G01X48354Y6427D01*
G01X48350Y6474D01*
G01X48345Y6521D01*
G01X48337Y6568D01*
G01X48328Y6615D01*
G01X48325Y6638D01*
G01X48326Y6653D01*
G01X48329Y6667D01*
G01X48334Y6680D01*
G01X48341Y6693D01*
G01X48349Y6705D01*
G01X48360Y6715D01*
G01X48371Y6723D01*
G01X48384Y6731D01*
G01X48398Y6736D01*
G01X48412Y6739D01*
G01X48426Y6740D01*
G01X48442Y6739D01*
G01X48458Y6735D01*
G01X48472Y6728D01*
G01X48486Y6720D01*
G01X48498Y6710D01*
G01X48831Y6377D01*
G01X48840Y6366D01*
G01X48848Y6354D01*
G01X48854Y6341D01*
G01X48858Y6327D01*
G01X48860Y6312D01*
G01X48864Y6266D01*
G01X48871Y6220D01*
G01X48879Y6174D01*
G01X48889Y6129D01*
G01X48902Y6084D01*
G01X48916Y6040D01*
G01X48933Y5996D01*
G01X48951Y5954D01*
G01X48971Y5912D01*
G01X48994Y5871D01*
G01X49017Y5832D01*
G01X49043Y5793D01*
G01X49071Y5756D01*
G01X49100Y5720D01*
G01X49131Y5685D01*
G01X49163Y5652D01*
G01X49197Y5620D01*
G01X49233Y5590D01*
G01X49269Y5561D01*
G01X49308Y5534D01*
G01X49347Y5509D01*
G01X49387Y5486D01*
G01X49428Y5465D01*
G01X49470Y5445D01*
G01X49513Y5428D01*
G01X49557Y5412D01*
G01X49601Y5399D01*
G01X49646Y5387D01*
G01X49692Y5377D01*
G01X49737Y5370D01*
G01X49784Y5365D01*
G01X49830Y5361D01*
G01X49876Y5360D01*
G01X49922Y5361D01*
G01X49968Y5365D01*
G01X50013Y5370D01*
G01X50058Y5377D01*
G01X50103Y5386D01*
G01X50147Y5397D01*
G01X50191Y5410D01*
G01X50235Y5425D01*
G01X50277Y5442D01*
G01X50359Y5482D01*
G01X50399Y5505D01*
G01X50438Y5529D01*
G01X50475Y5555D01*
G01X50511Y5582D01*
G01X50547Y5612D01*
G01X50581Y5643D01*
G01X50613Y5675D01*
G01X50644Y5709D01*
G01X50673Y5744D01*
G01X50700Y5780D01*
G01X50726Y5818D01*
G01X50751Y5857D01*
G01X50774Y5896D01*
G01X50794Y5937D01*
G01X50813Y5979D01*
G01X50830Y6021D01*
G01X50845Y6064D01*
G01X50858Y6108D01*
G01X50870Y6152D01*
G01X50879Y6197D01*
G01X50886Y6242D01*
G01X50891Y6288D01*
G01X50894Y6333D01*
G01X50895Y6379D01*
G01X50894Y6425D01*
G01X50891Y6470D01*
G01X50886Y6516D01*
G01X50879Y6561D01*
G01X50870Y6606D01*
G01X50858Y6650D01*
G01X50845Y6694D01*
G01X50830Y6737D01*
G01X50813Y6779D01*
G01X50794Y6821D01*
G01X50774Y6862D01*
G01X50751Y6901D01*
G01X50726Y6940D01*
G01X50700Y6978D01*
G01X50673Y7014D01*
G01X50644Y7049D01*
G01X50613Y7083D01*
G01X50581Y7115D01*
G01X50547Y7146D01*
G01X50511Y7176D01*
G01X50475Y7203D01*
G01X50438Y7229D01*
G01X50399Y7253D01*
G01X50359Y7276D01*
G01X50277Y7316D01*
G01X50235Y7333D01*
G01X50191Y7348D01*
G01X50147Y7361D01*
G01X50103Y7372D01*
G01X50058Y7381D01*
G01X50013Y7388D01*
G01X49968Y7393D01*
G01X49922Y7397D01*
G01X49876Y7398D01*
G01X49828Y7397D01*
G01X49780Y7393D01*
G01X49733Y7387D01*
G01X49685Y7379D01*
G01X49638Y7369D01*
G01X49592Y7357D01*
G01X49546Y7343D01*
G01X49501Y7326D01*
G01X49457Y7307D01*
G01X49414Y7286D01*
G01X49371Y7263D01*
G01X49330Y7239D01*
G01X49290Y7212D01*
G01X49252Y7183D01*
G01X49214Y7153D01*
G01X49178Y7121D01*
G01X49166Y7111D01*
G01X49153Y7103D01*
G01X49139Y7098D01*
G01X49124Y7094D01*
G01X49109Y7093D01*
G01X49093Y7094D01*
G01X49077Y7098D01*
G01X49063Y7104D01*
G01X49049Y7113D01*
G01X49037Y7123D01*
G01X46558Y9601D01*
G01X46539Y9620D01*
G01X46518Y9636D01*
G01X46496Y9651D01*
G01X46473Y9663D01*
G01X46450Y9674D01*
G01X46425Y9684D01*
G01X46399Y9691D01*
G01X46373Y9696D01*
G01X46347Y9699D01*
G01X46320Y9700D01*
G01X37485Y9700D01*
G01X37469Y9701D01*
G01X37453Y9705D01*
G01X37439Y9711D01*
G01X37425Y9720D01*
G01X37413Y9730D01*
G01X37162Y9981D01*
G01X37152Y9993D01*
G01X37143Y10007D01*
G01X37137Y10021D01*
G01X37133Y10037D01*
G01X37132Y10053D01*
G01X37132Y11093D01*
G01X37133Y11108D01*
G01X37136Y11123D01*
G01X37142Y11137D01*
G01X37150Y11151D01*
G01X37160Y11163D01*
G01X37171Y11173D01*
G01X37199Y11196D01*
G01X37225Y11222D01*
G01X37250Y11248D01*
G01X37274Y11276D01*
G01X37295Y11306D01*
G01X37315Y11337D01*
G01X37333Y11369D01*
G01X37349Y11401D01*
G01X37363Y11435D01*
G01X37375Y11470D01*
G01X37384Y11505D01*
G01X37392Y11540D01*
G01X37397Y11576D01*
G01X37401Y11613D01*
G01X37402Y11649D01*
G01X37401Y11686D01*
G01X37398Y11722D01*
G01X37392Y11757D01*
G01X37385Y11793D01*
G01X37375Y11827D01*
G01X37364Y11862D01*
G01X37350Y11895D01*
G01X37334Y11928D01*
G01X37317Y11959D01*
G01X37297Y11990D01*
G01X37277Y12019D01*
G01X37254Y12047D01*
G01X37229Y12074D01*
G01X37203Y12099D01*
G01X37175Y12122D01*
G01X37147Y12144D01*
G01X37117Y12164D01*
G01X37086Y12182D01*
G01X37053Y12199D01*
G01X37020Y12213D01*
G01X37006Y12219D01*
G01X36994Y12228D01*
G01X36983Y12238D01*
G01X36973Y12250D01*
G01X36966Y12264D01*
G01X36961Y12277D01*
G01X36957Y12292D01*
G01X36956Y12307D01*
G01X36957Y12322D01*
G01X36960Y12336D01*
G01X36965Y12350D01*
G01X36972Y12362D01*
G01X36981Y12374D01*
G01X36991Y12384D01*
G01X37003Y12393D01*
G01X37015Y12400D01*
G01X37029Y12405D01*
G01X37043Y12408D01*
G01X37058Y12409D01*
G01X38700Y12409D01*
G01X38724Y12410D01*
G01X38748Y12414D01*
G01X38771Y12419D01*
G01X38793Y12426D01*
G01X38815Y12436D01*
G01X38836Y12448D01*
G01X38855Y12461D01*
G01X38873Y12476D01*
G01X38890Y12493D01*
G01X38905Y12511D01*
G01X38918Y12530D01*
G01X38930Y12551D01*
G01X38940Y12573D01*
G01X38947Y12595D01*
G01X38952Y12618D01*
G01X38956Y12642D01*
G01X38957Y12665D01*
G01X38957Y15142D01*
G37*
G36*
G01X51972Y5934D02*
G01X51500Y5934D01*
G01X51522Y5891D01*
G01X51547Y5849D01*
G01X51573Y5809D01*
G01X51601Y5769D01*
G01X51631Y5731D01*
G01X51663Y5694D01*
G01X51696Y5659D01*
G01X51731Y5625D01*
G01X51768Y5594D01*
G01X51806Y5564D01*
G01X51846Y5535D01*
G01X51887Y5509D01*
G01X51929Y5485D01*
G01X51972Y5463D01*
G01X51972Y5934D01*
G37*
G36*
G01X53333Y5934D02*
G01X52861Y5934D01*
G01X52861Y5463D01*
G01X52904Y5485D01*
G01X52946Y5509D01*
G01X52987Y5535D01*
G01X53027Y5564D01*
G01X53065Y5594D01*
G01X53102Y5625D01*
G01X53137Y5659D01*
G01X53170Y5694D01*
G01X53202Y5731D01*
G01X53232Y5769D01*
G01X53260Y5809D01*
G01X53286Y5849D01*
G01X53311Y5891D01*
G01X53333Y5934D01*
G37*
G36*
G01X51972Y6823D02*
G01X51972Y7295D01*
G01X51929Y7273D01*
G01X51887Y7249D01*
G01X51846Y7223D01*
G01X51806Y7194D01*
G01X51768Y7164D01*
G01X51731Y7133D01*
G01X51696Y7099D01*
G01X51663Y7064D01*
G01X51631Y7027D01*
G01X51601Y6989D01*
G01X51573Y6949D01*
G01X51547Y6909D01*
G01X51522Y6867D01*
G01X51500Y6823D01*
G01X51972Y6823D01*
G37*
G36*
G01X52904Y7273D02*
G01X52861Y7295D01*
G01X52861Y6823D01*
G01X53333Y6823D01*
G01X53311Y6867D01*
G01X53286Y6909D01*
G01X53260Y6949D01*
G01X53232Y6989D01*
G01X53202Y7027D01*
G01X53170Y7064D01*
G01X53137Y7099D01*
G01X53102Y7133D01*
G01X53065Y7164D01*
G01X53027Y7194D01*
G01X52987Y7223D01*
G01X52946Y7249D01*
G01X52904Y7273D01*
G37*
G36*
G01X31017Y15142D02*
G01X28284Y15142D01*
G01X28284Y12665D01*
G01X28285Y12642D01*
G01X28289Y12618D01*
G01X28294Y12595D01*
G01X28301Y12573D01*
G01X28311Y12551D01*
G01X28323Y12530D01*
G01X28336Y12511D01*
G01X28351Y12493D01*
G01X28368Y12476D01*
G01X28386Y12461D01*
G01X28405Y12448D01*
G01X28426Y12436D01*
G01X28448Y12426D01*
G01X28470Y12419D01*
G01X28493Y12414D01*
G01X28517Y12410D01*
G01X28540Y12409D01*
G01X31017Y12409D01*
G01X31017Y15142D01*
G37*
G36*
G01X47209Y34211D02*
G01X23841Y34211D01*
G01X23815Y34210D01*
G01X23789Y34207D01*
G01X23763Y34202D01*
G01X23737Y34195D01*
G01X23712Y34185D01*
G01X23689Y34174D01*
G01X23666Y34162D01*
G01X23644Y34147D01*
G01X23623Y34131D01*
G01X23585Y34093D01*
G01X23569Y34072D01*
G01X23554Y34050D01*
G01X23542Y34027D01*
G01X23531Y34004D01*
G01X23521Y33979D01*
G01X23514Y33953D01*
G01X23509Y33927D01*
G01X23506Y33901D01*
G01X23505Y33874D01*
G01X23505Y25801D01*
G01X23504Y25785D01*
G01X23500Y25769D01*
G01X23494Y25755D01*
G01X23485Y25741D01*
G01X23475Y25729D01*
G01X23096Y25349D01*
G01X23077Y25330D01*
G01X23061Y25309D01*
G01X23046Y25287D01*
G01X23034Y25264D01*
G01X23023Y25241D01*
G01X23013Y25216D01*
G01X23006Y25190D01*
G01X23001Y25164D01*
G01X22998Y25138D01*
G01X22997Y25111D01*
G01X22997Y24150D01*
G01X22996Y24134D01*
G01X22992Y24118D01*
G01X22986Y24104D01*
G01X22977Y24090D01*
G01X22967Y24078D01*
G01X22727Y23838D01*
G01X22715Y23827D01*
G01X22701Y23819D01*
G01X22686Y23813D01*
G01X22671Y23809D01*
G01X22655Y23808D01*
G01X22643Y23809D01*
G01X22608Y23812D01*
G01X22571Y23813D01*
G01X22536Y23812D01*
G01X22501Y23809D01*
G01X22466Y23804D01*
G01X22432Y23797D01*
G01X22398Y23788D01*
G01X22364Y23776D01*
G01X22331Y23763D01*
G01X22299Y23749D01*
G01X22268Y23732D01*
G01X22238Y23713D01*
G01X22209Y23693D01*
G01X22182Y23671D01*
G01X22155Y23647D01*
G01X22131Y23623D01*
G01X22107Y23596D01*
G01X22085Y23569D01*
G01X22065Y23540D01*
G01X22046Y23510D01*
G01X22029Y23479D01*
G01X22015Y23447D01*
G01X22002Y23414D01*
G01X21990Y23380D01*
G01X21981Y23346D01*
G01X21974Y23312D01*
G01X21969Y23277D01*
G01X21966Y23242D01*
G01X21965Y23206D01*
G01X21966Y23170D01*
G01X21969Y23135D01*
G01X21970Y23123D01*
G01X21968Y23107D01*
G01X21965Y23092D01*
G01X21959Y23077D01*
G01X21951Y23063D01*
G01X21940Y23051D01*
G01X19540Y20650D01*
G01X19521Y20631D01*
G01X19505Y20610D01*
G01X19490Y20588D01*
G01X19478Y20565D01*
G01X19467Y20542D01*
G01X19457Y20517D01*
G01X19450Y20491D01*
G01X19445Y20465D01*
G01X19442Y20439D01*
G01X19441Y20412D01*
G01X19441Y14492D01*
G01X19440Y14477D01*
G01X19437Y14462D01*
G01X19431Y14448D01*
G01X19423Y14434D01*
G01X19413Y14422D01*
G01X19402Y14412D01*
G01X19374Y14389D01*
G01X19348Y14363D01*
G01X19323Y14337D01*
G01X19299Y14309D01*
G01X19278Y14279D01*
G01X19258Y14248D01*
G01X19240Y14216D01*
G01X19224Y14184D01*
G01X19210Y14150D01*
G01X19198Y14115D01*
G01X19189Y14080D01*
G01X19181Y14045D01*
G01X19176Y14009D01*
G01X19172Y13972D01*
G01X19171Y13935D01*
G01X19172Y13900D01*
G01X19175Y13865D01*
G01X19180Y13830D01*
G01X19187Y13796D01*
G01X19196Y13762D01*
G01X19208Y13728D01*
G01X19221Y13695D01*
G01X19235Y13663D01*
G01X19252Y13632D01*
G01X19271Y13602D01*
G01X19291Y13573D01*
G01X19313Y13546D01*
G01X19337Y13519D01*
G01X19361Y13495D01*
G01X19388Y13471D01*
G01X19415Y13449D01*
G01X19444Y13429D01*
G01X19474Y13410D01*
G01X19505Y13393D01*
G01X19537Y13379D01*
G01X19570Y13366D01*
G01X19604Y13354D01*
G01X19638Y13345D01*
G01X19672Y13338D01*
G01X19707Y13333D01*
G01X19742Y13330D01*
G01X19777Y13329D01*
G01X19813Y13330D01*
G01X19848Y13333D01*
G01X19883Y13338D01*
G01X19917Y13345D01*
G01X19951Y13354D01*
G01X19985Y13366D01*
G01X20018Y13379D01*
G01X20050Y13393D01*
G01X20081Y13410D01*
G01X20111Y13429D01*
G01X20140Y13449D01*
G01X20167Y13471D01*
G01X20194Y13495D01*
G01X20218Y13519D01*
G01X20242Y13546D01*
G01X20264Y13573D01*
G01X20284Y13602D01*
G01X20303Y13632D01*
G01X20320Y13663D01*
G01X20334Y13695D01*
G01X20347Y13728D01*
G01X20359Y13762D01*
G01X20368Y13796D01*
G01X20375Y13830D01*
G01X20380Y13865D01*
G01X20383Y13900D01*
G01X20384Y13935D01*
G01X20383Y13972D01*
G01X20379Y14009D01*
G01X20374Y14045D01*
G01X20366Y14080D01*
G01X20357Y14115D01*
G01X20345Y14150D01*
G01X20331Y14184D01*
G01X20315Y14216D01*
G01X20297Y14248D01*
G01X20277Y14279D01*
G01X20256Y14309D01*
G01X20232Y14337D01*
G01X20207Y14363D01*
G01X20181Y14389D01*
G01X20153Y14412D01*
G01X20142Y14422D01*
G01X20132Y14434D01*
G01X20124Y14448D01*
G01X20118Y14462D01*
G01X20115Y14477D01*
G01X20114Y14492D01*
G01X20114Y20231D01*
G01X20115Y20247D01*
G01X20119Y20263D01*
G01X20125Y20277D01*
G01X20134Y20291D01*
G01X20144Y20303D01*
G01X22416Y22575D01*
G01X22428Y22586D01*
G01X22442Y22594D01*
G01X22457Y22600D01*
G01X22472Y22603D01*
G01X22488Y22605D01*
G01X22500Y22604D01*
G01X22535Y22601D01*
G01X22571Y22600D01*
G01X22607Y22601D01*
G01X22642Y22604D01*
G01X22677Y22609D01*
G01X22711Y22616D01*
G01X22745Y22625D01*
G01X22779Y22637D01*
G01X22812Y22650D01*
G01X22844Y22664D01*
G01X22875Y22681D01*
G01X22905Y22700D01*
G01X22934Y22720D01*
G01X22961Y22742D01*
G01X22988Y22766D01*
G01X23012Y22790D01*
G01X23036Y22817D01*
G01X23058Y22844D01*
G01X23078Y22873D01*
G01X23097Y22903D01*
G01X23114Y22934D01*
G01X23128Y22966D01*
G01X23141Y22999D01*
G01X23153Y23033D01*
G01X23162Y23067D01*
G01X23169Y23101D01*
G01X23174Y23136D01*
G01X23177Y23171D01*
G01X23178Y23206D01*
G01X23177Y23243D01*
G01X23174Y23278D01*
G01X23173Y23290D01*
G01X23174Y23306D01*
G01X23178Y23321D01*
G01X23184Y23336D01*
G01X23192Y23350D01*
G01X23203Y23362D01*
G01X23571Y23731D01*
G01X23590Y23750D01*
G01X23606Y23771D01*
G01X23621Y23793D01*
G01X23633Y23816D01*
G01X23644Y23839D01*
G01X23654Y23864D01*
G01X23661Y23890D01*
G01X23666Y23916D01*
G01X23669Y23942D01*
G01X23670Y23968D01*
G01X23670Y24930D01*
G01X23671Y24946D01*
G01X23675Y24962D01*
G01X23681Y24976D01*
G01X23690Y24990D01*
G01X23700Y25002D01*
G01X24079Y25382D01*
G01X24098Y25401D01*
G01X24114Y25422D01*
G01X24129Y25444D01*
G01X24141Y25467D01*
G01X24152Y25490D01*
G01X24162Y25515D01*
G01X24169Y25541D01*
G01X24174Y25567D01*
G01X24177Y25593D01*
G01X24178Y25619D01*
G01X24178Y33437D01*
G01X24179Y33451D01*
G01X24182Y33465D01*
G01X24187Y33479D01*
G01X24194Y33491D01*
G01X24203Y33503D01*
G01X24213Y33513D01*
G01X24225Y33522D01*
G01X24237Y33529D01*
G01X24251Y33534D01*
G01X24265Y33537D01*
G01X24279Y33538D01*
G01X47028Y33538D01*
G01X47044Y33537D01*
G01X47060Y33533D01*
G01X47074Y33527D01*
G01X47088Y33518D01*
G01X47100Y33508D01*
G01X50536Y30072D01*
G01X50547Y30060D01*
G01X50555Y30046D01*
G01X50561Y30031D01*
G01X50565Y30016D01*
G01X50566Y30000D01*
G01X50566Y26705D01*
G01X50565Y26690D01*
G01X50562Y26676D01*
G01X50557Y26662D01*
G01X50550Y26650D01*
G01X50541Y26638D01*
G01X50531Y26628D01*
G01X50519Y26619D01*
G01X50506Y26612D01*
G01X50493Y26607D01*
G01X50479Y26604D01*
G01X50464Y26603D01*
G01X50303Y26603D01*
G01X50279Y26602D01*
G01X50255Y26599D01*
G01X50232Y26593D01*
G01X50210Y26586D01*
G01X50188Y26576D01*
G01X50168Y26564D01*
G01X50148Y26551D01*
G01X50129Y26536D01*
G01X50113Y26519D01*
G01X50098Y26501D01*
G01X50084Y26482D01*
G01X50073Y26461D01*
G01X50063Y26439D01*
G01X50056Y26417D01*
G01X50050Y26394D01*
G01X50047Y26370D01*
G01X50046Y26346D01*
G01X50046Y25147D01*
G01X50047Y25123D01*
G01X50050Y25099D01*
G01X50056Y25076D01*
G01X50063Y25054D01*
G01X50073Y25032D01*
G01X50084Y25011D01*
G01X50098Y24992D01*
G01X50113Y24974D01*
G01X50129Y24957D01*
G01X50148Y24942D01*
G01X50168Y24929D01*
G01X50188Y24917D01*
G01X50210Y24907D01*
G01X50232Y24900D01*
G01X50255Y24894D01*
G01X50279Y24891D01*
G01X50303Y24890D01*
G01X51503Y24890D01*
G01X51526Y24891D01*
G01X51550Y24894D01*
G01X51573Y24900D01*
G01X51595Y24907D01*
G01X51617Y24917D01*
G01X51638Y24929D01*
G01X51657Y24942D01*
G01X51675Y24957D01*
G01X51692Y24974D01*
G01X51707Y24992D01*
G01X51721Y25011D01*
G01X51732Y25032D01*
G01X51742Y25054D01*
G01X51749Y25076D01*
G01X51755Y25099D01*
G01X51758Y25123D01*
G01X51759Y25147D01*
G01X51759Y26346D01*
G01X51758Y26370D01*
G01X51755Y26394D01*
G01X51749Y26417D01*
G01X51742Y26439D01*
G01X51732Y26461D01*
G01X51721Y26482D01*
G01X51707Y26501D01*
G01X51692Y26519D01*
G01X51675Y26536D01*
G01X51657Y26551D01*
G01X51638Y26564D01*
G01X51617Y26576D01*
G01X51595Y26586D01*
G01X51573Y26593D01*
G01X51550Y26599D01*
G01X51526Y26602D01*
G01X51503Y26603D01*
G01X51341Y26603D01*
G01X51326Y26604D01*
G01X51312Y26607D01*
G01X51298Y26612D01*
G01X51286Y26619D01*
G01X51274Y26628D01*
G01X51264Y26638D01*
G01X51255Y26650D01*
G01X51248Y26662D01*
G01X51243Y26676D01*
G01X51240Y26690D01*
G01X51239Y26705D01*
G01X51239Y30181D01*
G01X51238Y30208D01*
G01X51235Y30234D01*
G01X51230Y30260D01*
G01X51223Y30285D01*
G01X51214Y30310D01*
G01X51202Y30334D01*
G01X51190Y30357D01*
G01X51175Y30379D01*
G01X51158Y30400D01*
G01X51140Y30420D01*
G01X47447Y34112D01*
G01X47428Y34131D01*
G01X47407Y34147D01*
G01X47385Y34162D01*
G01X47362Y34174D01*
G01X47339Y34185D01*
G01X47314Y34195D01*
G01X47288Y34202D01*
G01X47262Y34207D01*
G01X47236Y34210D01*
G01X47209Y34211D01*
G37*
G36*
G01X46320Y20542D02*
G01X43780Y20542D01*
G01X43757Y20541D01*
G01X43733Y20537D01*
G01X43710Y20532D01*
G01X43688Y20525D01*
G01X43666Y20515D01*
G01X43645Y20503D01*
G01X43626Y20490D01*
G01X43608Y20475D01*
G01X43591Y20458D01*
G01X43576Y20440D01*
G01X43563Y20421D01*
G01X43551Y20400D01*
G01X43541Y20378D01*
G01X43534Y20356D01*
G01X43529Y20333D01*
G01X43525Y20309D01*
G01X43524Y20285D01*
G01X43524Y15205D01*
G01X43525Y15182D01*
G01X43529Y15158D01*
G01X43534Y15135D01*
G01X43541Y15113D01*
G01X43551Y15091D01*
G01X43563Y15070D01*
G01X43576Y15051D01*
G01X43591Y15033D01*
G01X43608Y15016D01*
G01X43626Y15001D01*
G01X43645Y14988D01*
G01X43666Y14976D01*
G01X43688Y14966D01*
G01X43710Y14959D01*
G01X43733Y14954D01*
G01X43757Y14950D01*
G01X43780Y14949D01*
G01X44352Y14949D01*
G01X44368Y14948D01*
G01X44383Y14944D01*
G01X44398Y14938D01*
G01X44411Y14930D01*
G01X44424Y14919D01*
G01X44434Y14907D01*
G01X44442Y14894D01*
G01X44449Y14879D01*
G01X44459Y14829D01*
G01X44468Y14795D01*
G01X44479Y14761D01*
G01X44492Y14728D01*
G01X44506Y14696D01*
G01X44523Y14664D01*
G01X44541Y14634D01*
G01X44562Y14605D01*
G01X44584Y14577D01*
G01X44607Y14550D01*
G01X44632Y14525D01*
G01X44659Y14501D01*
G01X44686Y14479D01*
G01X44715Y14459D01*
G01X44746Y14440D01*
G01X44777Y14423D01*
G01X44809Y14408D01*
G01X44842Y14395D01*
G01X44875Y14384D01*
G01X44910Y14374D01*
G01X44944Y14367D01*
G01X44980Y14362D01*
G01X45015Y14359D01*
G01X45050Y14358D01*
G01X45086Y14359D01*
G01X45121Y14362D01*
G01X45157Y14367D01*
G01X45191Y14374D01*
G01X45226Y14384D01*
G01X45259Y14395D01*
G01X45292Y14408D01*
G01X45324Y14423D01*
G01X45355Y14440D01*
G01X45386Y14459D01*
G01X45415Y14479D01*
G01X45442Y14501D01*
G01X45469Y14525D01*
G01X45494Y14550D01*
G01X45517Y14577D01*
G01X45539Y14605D01*
G01X45560Y14634D01*
G01X45578Y14664D01*
G01X45595Y14696D01*
G01X45609Y14728D01*
G01X45622Y14761D01*
G01X45633Y14795D01*
G01X45642Y14829D01*
G01X45652Y14879D01*
G01X45659Y14894D01*
G01X45667Y14907D01*
G01X45677Y14919D01*
G01X45690Y14930D01*
G01X45703Y14938D01*
G01X45717Y14944D01*
G01X45733Y14948D01*
G01X45749Y14949D01*
G01X46320Y14949D01*
G01X46344Y14950D01*
G01X46368Y14954D01*
G01X46391Y14959D01*
G01X46413Y14966D01*
G01X46435Y14976D01*
G01X46456Y14988D01*
G01X46475Y15001D01*
G01X46493Y15016D01*
G01X46510Y15033D01*
G01X46525Y15051D01*
G01X46538Y15070D01*
G01X46550Y15091D01*
G01X46560Y15113D01*
G01X46567Y15135D01*
G01X46572Y15158D01*
G01X46576Y15182D01*
G01X46577Y15205D01*
G01X46577Y20285D01*
G01X46576Y20309D01*
G01X46572Y20333D01*
G01X46567Y20356D01*
G01X46560Y20378D01*
G01X46550Y20400D01*
G01X46538Y20421D01*
G01X46525Y20440D01*
G01X46510Y20458D01*
G01X46493Y20475D01*
G01X46475Y20490D01*
G01X46456Y20503D01*
G01X46435Y20515D01*
G01X46413Y20525D01*
G01X46391Y20532D01*
G01X46368Y20537D01*
G01X46344Y20541D01*
G01X46320Y20542D01*
G37*
G36*
G01X23460Y20542D02*
G01X20920Y20542D01*
G01X20897Y20541D01*
G01X20873Y20537D01*
G01X20850Y20532D01*
G01X20828Y20525D01*
G01X20806Y20515D01*
G01X20785Y20503D01*
G01X20766Y20490D01*
G01X20748Y20475D01*
G01X20731Y20458D01*
G01X20716Y20440D01*
G01X20703Y20421D01*
G01X20691Y20400D01*
G01X20681Y20378D01*
G01X20674Y20356D01*
G01X20669Y20333D01*
G01X20665Y20309D01*
G01X20664Y20285D01*
G01X20664Y15205D01*
G01X20665Y15182D01*
G01X20669Y15158D01*
G01X20674Y15135D01*
G01X20681Y15113D01*
G01X20691Y15091D01*
G01X20703Y15070D01*
G01X20716Y15051D01*
G01X20731Y15033D01*
G01X20748Y15016D01*
G01X20766Y15001D01*
G01X20785Y14988D01*
G01X20806Y14976D01*
G01X20828Y14966D01*
G01X20850Y14959D01*
G01X20873Y14954D01*
G01X20897Y14950D01*
G01X20920Y14949D01*
G01X23460Y14949D01*
G01X23484Y14950D01*
G01X23508Y14954D01*
G01X23531Y14959D01*
G01X23553Y14966D01*
G01X23575Y14976D01*
G01X23596Y14988D01*
G01X23615Y15001D01*
G01X23633Y15016D01*
G01X23650Y15033D01*
G01X23665Y15051D01*
G01X23678Y15070D01*
G01X23690Y15091D01*
G01X23700Y15113D01*
G01X23707Y15135D01*
G01X23712Y15158D01*
G01X23716Y15182D01*
G01X23717Y15205D01*
G01X23717Y20285D01*
G01X23716Y20309D01*
G01X23712Y20333D01*
G01X23707Y20356D01*
G01X23700Y20378D01*
G01X23690Y20400D01*
G01X23678Y20421D01*
G01X23665Y20440D01*
G01X23650Y20458D01*
G01X23633Y20475D01*
G01X23615Y20490D01*
G01X23596Y20503D01*
G01X23575Y20515D01*
G01X23553Y20525D01*
G01X23531Y20532D01*
G01X23508Y20537D01*
G01X23484Y20541D01*
G01X23460Y20542D01*
G37*
G36*
G01X31017Y23082D02*
G01X28540Y23082D01*
G01X28517Y23081D01*
G01X28493Y23077D01*
G01X28470Y23072D01*
G01X28448Y23065D01*
G01X28426Y23055D01*
G01X28405Y23043D01*
G01X28386Y23030D01*
G01X28368Y23015D01*
G01X28351Y22998D01*
G01X28336Y22980D01*
G01X28323Y22961D01*
G01X28311Y22940D01*
G01X28301Y22918D01*
G01X28294Y22896D01*
G01X28289Y22873D01*
G01X28285Y22849D01*
G01X28284Y22825D01*
G01X28284Y20349D01*
G01X31017Y20349D01*
G01X31017Y23082D01*
G37*
G36*
G01X38700Y23082D02*
G01X36224Y23082D01*
G01X36224Y20349D01*
G01X38957Y20349D01*
G01X38957Y22825D01*
G01X38956Y22849D01*
G01X38952Y22873D01*
G01X38947Y22896D01*
G01X38940Y22918D01*
G01X38930Y22940D01*
G01X38918Y22961D01*
G01X38905Y22980D01*
G01X38890Y22998D01*
G01X38873Y23015D01*
G01X38855Y23030D01*
G01X38836Y23043D01*
G01X38815Y23055D01*
G01X38793Y23065D01*
G01X38771Y23072D01*
G01X38748Y23077D01*
G01X38724Y23081D01*
G01X38700Y23082D01*
G37*
G36*
G01X59278Y25383D02*
G01X58866Y25383D01*
G01X58866Y24971D01*
G01X58904Y24990D01*
G01X58941Y25011D01*
G01X58977Y25033D01*
G01X59012Y25058D01*
G01X59045Y25084D01*
G01X59077Y25111D01*
G01X59108Y25141D01*
G01X59137Y25171D01*
G01X59165Y25204D01*
G01X59191Y25237D01*
G01X59216Y25272D01*
G01X59238Y25308D01*
G01X59259Y25345D01*
G01X59278Y25383D01*
G37*
G36*
G01X58139Y25383D02*
G01X57727Y25383D01*
G01X57746Y25345D01*
G01X57767Y25308D01*
G01X57789Y25272D01*
G01X57813Y25237D01*
G01X57867Y25171D01*
G01X57897Y25141D01*
G01X57928Y25111D01*
G01X57960Y25084D01*
G01X57993Y25058D01*
G01X58028Y25033D01*
G01X58064Y25011D01*
G01X58101Y24990D01*
G01X58139Y24971D01*
G01X58139Y25383D01*
G37*
G36*
G01X58139Y26110D02*
G01X58139Y26522D01*
G01X58101Y26503D01*
G01X58064Y26482D01*
G01X58028Y26460D01*
G01X57993Y26435D01*
G01X57960Y26409D01*
G01X57928Y26381D01*
G01X57897Y26352D01*
G01X57867Y26322D01*
G01X57813Y26256D01*
G01X57789Y26221D01*
G01X57767Y26185D01*
G01X57746Y26148D01*
G01X57727Y26110D01*
G01X58139Y26110D01*
G37*
G36*
G01X58904Y26503D02*
G01X58866Y26522D01*
G01X58866Y26110D01*
G01X59278Y26110D01*
G01X59259Y26148D01*
G01X59238Y26185D01*
G01X59216Y26221D01*
G01X59191Y26256D01*
G01X59165Y26289D01*
G01X59137Y26322D01*
G01X59108Y26352D01*
G01X59077Y26381D01*
G01X59045Y26409D01*
G01X59012Y26435D01*
G01X58977Y26460D01*
G01X58941Y26482D01*
G01X58904Y26503D01*
G37*
G36*
G01X38238Y32225D02*
G01X38192Y32226D01*
G01X38147Y32225D01*
G01X38101Y32222D01*
G01X38056Y32217D01*
G01X38011Y32210D01*
G01X37966Y32201D01*
G01X37922Y32189D01*
G01X37878Y32176D01*
G01X37835Y32161D01*
G01X37792Y32144D01*
G01X37751Y32125D01*
G01X37710Y32104D01*
G01X37670Y32082D01*
G01X37632Y32057D01*
G01X37594Y32031D01*
G01X37557Y32004D01*
G01X37522Y31975D01*
G01X37489Y31944D01*
G01X37456Y31911D01*
G01X37425Y31878D01*
G01X37396Y31842D01*
G01X37369Y31806D01*
G01X37343Y31768D01*
G01X37318Y31730D01*
G01X37296Y31690D01*
G01X37275Y31649D01*
G01X37256Y31608D01*
G01X37239Y31565D01*
G01X37224Y31522D01*
G01X37211Y31478D01*
G01X37199Y31434D01*
G01X37190Y31389D01*
G01X37183Y31344D01*
G01X37178Y31299D01*
G01X37175Y31253D01*
G01X37174Y31207D01*
G01X37175Y31162D01*
G01X37178Y31116D01*
G01X37183Y31071D01*
G01X37190Y31026D01*
G01X37199Y30981D01*
G01X37211Y30936D01*
G01X37224Y30893D01*
G01X37239Y30849D01*
G01X37256Y30807D01*
G01X37275Y30766D01*
G01X37296Y30725D01*
G01X37318Y30685D01*
G01X37343Y30646D01*
G01X37369Y30609D01*
G01X37396Y30572D01*
G01X37425Y30537D01*
G01X37456Y30503D01*
G01X37489Y30471D01*
G01X37522Y30440D01*
G01X37557Y30411D01*
G01X37594Y30384D01*
G01X37632Y30357D01*
G01X37670Y30333D01*
G01X37710Y30310D01*
G01X37751Y30290D01*
G01X37792Y30271D01*
G01X37835Y30254D01*
G01X37878Y30239D01*
G01X37922Y30226D01*
G01X37966Y30214D01*
G01X38011Y30205D01*
G01X38056Y30198D01*
G01X38101Y30193D01*
G01X38147Y30190D01*
G01X38192Y30189D01*
G01X38238Y30190D01*
G01X38284Y30193D01*
G01X38329Y30198D01*
G01X38374Y30205D01*
G01X38419Y30214D01*
G01X38464Y30226D01*
G01X38507Y30239D01*
G01X38551Y30254D01*
G01X38593Y30271D01*
G01X38634Y30290D01*
G01X38675Y30310D01*
G01X38715Y30333D01*
G01X38754Y30357D01*
G01X38791Y30384D01*
G01X38827Y30411D01*
G01X38863Y30440D01*
G01X38897Y30471D01*
G01X38929Y30503D01*
G01X38960Y30537D01*
G01X38989Y30572D01*
G01X39016Y30609D01*
G01X39042Y30646D01*
G01X39067Y30685D01*
G01X39090Y30725D01*
G01X39110Y30766D01*
G01X39129Y30807D01*
G01X39146Y30849D01*
G01X39161Y30893D01*
G01X39174Y30936D01*
G01X39186Y30981D01*
G01X39195Y31026D01*
G01X39202Y31071D01*
G01X39207Y31116D01*
G01X39210Y31162D01*
G01X39211Y31207D01*
G01X39210Y31253D01*
G01X39207Y31299D01*
G01X39202Y31344D01*
G01X39195Y31389D01*
G01X39186Y31434D01*
G01X39174Y31478D01*
G01X39161Y31522D01*
G01X39146Y31565D01*
G01X39129Y31608D01*
G01X39110Y31649D01*
G01X39090Y31690D01*
G01X39067Y31730D01*
G01X39042Y31768D01*
G01X39016Y31806D01*
G01X38989Y31842D01*
G01X38960Y31878D01*
G01X38929Y31911D01*
G01X38897Y31944D01*
G01X38863Y31975D01*
G01X38827Y32004D01*
G01X38791Y32031D01*
G01X38754Y32057D01*
G01X38715Y32082D01*
G01X38675Y32104D01*
G01X38634Y32125D01*
G01X38593Y32144D01*
G01X38551Y32161D01*
G01X38507Y32176D01*
G01X38464Y32189D01*
G01X38419Y32201D01*
G01X38374Y32210D01*
G01X38329Y32217D01*
G01X38284Y32222D01*
G01X38238Y32225D01*
G37*
G36*
G01X35698Y32225D02*
G01X35652Y32226D01*
G01X35607Y32225D01*
G01X35561Y32222D01*
G01X35516Y32217D01*
G01X35471Y32210D01*
G01X35426Y32201D01*
G01X35382Y32189D01*
G01X35338Y32176D01*
G01X35295Y32161D01*
G01X35252Y32144D01*
G01X35211Y32125D01*
G01X35170Y32104D01*
G01X35130Y32082D01*
G01X35092Y32057D01*
G01X35054Y32031D01*
G01X35017Y32004D01*
G01X34982Y31975D01*
G01X34949Y31944D01*
G01X34916Y31911D01*
G01X34885Y31878D01*
G01X34856Y31842D01*
G01X34829Y31806D01*
G01X34803Y31768D01*
G01X34778Y31730D01*
G01X34756Y31690D01*
G01X34735Y31649D01*
G01X34716Y31608D01*
G01X34699Y31565D01*
G01X34684Y31522D01*
G01X34671Y31478D01*
G01X34659Y31434D01*
G01X34650Y31389D01*
G01X34643Y31344D01*
G01X34638Y31299D01*
G01X34635Y31253D01*
G01X34634Y31207D01*
G01X34635Y31162D01*
G01X34638Y31116D01*
G01X34643Y31071D01*
G01X34650Y31026D01*
G01X34659Y30981D01*
G01X34671Y30936D01*
G01X34684Y30893D01*
G01X34699Y30849D01*
G01X34716Y30807D01*
G01X34735Y30766D01*
G01X34756Y30725D01*
G01X34778Y30685D01*
G01X34803Y30646D01*
G01X34829Y30609D01*
G01X34856Y30572D01*
G01X34885Y30537D01*
G01X34916Y30503D01*
G01X34949Y30471D01*
G01X34982Y30440D01*
G01X35017Y30411D01*
G01X35054Y30384D01*
G01X35092Y30357D01*
G01X35130Y30333D01*
G01X35170Y30310D01*
G01X35211Y30290D01*
G01X35252Y30271D01*
G01X35295Y30254D01*
G01X35338Y30239D01*
G01X35382Y30226D01*
G01X35426Y30214D01*
G01X35471Y30205D01*
G01X35516Y30198D01*
G01X35561Y30193D01*
G01X35607Y30190D01*
G01X35652Y30189D01*
G01X35698Y30190D01*
G01X35744Y30193D01*
G01X35789Y30198D01*
G01X35834Y30205D01*
G01X35879Y30214D01*
G01X35924Y30226D01*
G01X35967Y30239D01*
G01X36011Y30254D01*
G01X36053Y30271D01*
G01X36094Y30290D01*
G01X36135Y30310D01*
G01X36175Y30333D01*
G01X36214Y30357D01*
G01X36251Y30384D01*
G01X36287Y30411D01*
G01X36323Y30440D01*
G01X36357Y30471D01*
G01X36389Y30503D01*
G01X36420Y30537D01*
G01X36449Y30572D01*
G01X36476Y30609D01*
G01X36502Y30646D01*
G01X36527Y30685D01*
G01X36550Y30725D01*
G01X36570Y30766D01*
G01X36589Y30807D01*
G01X36606Y30849D01*
G01X36621Y30893D01*
G01X36634Y30936D01*
G01X36646Y30981D01*
G01X36655Y31026D01*
G01X36662Y31071D01*
G01X36667Y31116D01*
G01X36670Y31162D01*
G01X36671Y31207D01*
G01X36670Y31253D01*
G01X36667Y31299D01*
G01X36662Y31344D01*
G01X36655Y31389D01*
G01X36646Y31434D01*
G01X36634Y31478D01*
G01X36621Y31522D01*
G01X36606Y31565D01*
G01X36589Y31608D01*
G01X36570Y31649D01*
G01X36550Y31690D01*
G01X36527Y31730D01*
G01X36502Y31768D01*
G01X36476Y31806D01*
G01X36449Y31842D01*
G01X36420Y31878D01*
G01X36389Y31911D01*
G01X36357Y31944D01*
G01X36323Y31975D01*
G01X36287Y32004D01*
G01X36251Y32031D01*
G01X36214Y32057D01*
G01X36175Y32082D01*
G01X36135Y32104D01*
G01X36094Y32125D01*
G01X36053Y32144D01*
G01X36011Y32161D01*
G01X35967Y32176D01*
G01X35924Y32189D01*
G01X35879Y32201D01*
G01X35834Y32210D01*
G01X35789Y32217D01*
G01X35744Y32222D01*
G01X35698Y32225D01*
G37*
G36*
G01X30128Y30763D02*
G01X29656Y30763D01*
G01X29678Y30720D01*
G01X29703Y30678D01*
G01X29729Y30637D01*
G01X29757Y30597D01*
G01X29787Y30559D01*
G01X29819Y30522D01*
G01X29852Y30487D01*
G01X29888Y30454D01*
G01X29924Y30422D01*
G01X29962Y30392D01*
G01X30002Y30364D01*
G01X30043Y30337D01*
G01X30085Y30313D01*
G01X30128Y30291D01*
G01X30128Y30763D01*
G37*
G36*
G01X31489Y30763D02*
G01X31017Y30763D01*
G01X31017Y30291D01*
G01X31060Y30313D01*
G01X31102Y30337D01*
G01X31143Y30364D01*
G01X31183Y30392D01*
G01X31221Y30422D01*
G01X31258Y30454D01*
G01X31293Y30487D01*
G01X31326Y30522D01*
G01X31358Y30559D01*
G01X31388Y30597D01*
G01X31416Y30637D01*
G01X31443Y30678D01*
G01X31467Y30720D01*
G01X31489Y30763D01*
G37*

%LPD*%
G54D11*
G01X33620Y12424D02*
G01X30966Y12424D01*
G01X29683Y11141D01*
G01X33620Y17745D02*
G01X33620Y12424D01*
G01X33620Y17745D02*
G01X33620Y23067D01*
G01X30572Y31207D02*
G01X30572Y26115D01*
G01X33620Y23067D01*
G01X45050Y17745D02*
G01X45050Y14964D01*
G01X14316Y9998D02*
G01X14316Y8347D01*
G01X14316Y8347D02*
G01X14697Y7966D01*
G01X25111Y7966D01*
G01X25365Y7712D01*
G01X29048Y7712D01*
G01X31868Y4918D01*
G01X50902Y25746D02*
G01X50902Y30181D01*
G01X47209Y33874D01*
G01X23841Y33874D01*
G01X23841Y25619D01*
G01X23333Y25111D01*
G01X23333Y23968D01*
G01X22571Y23206D01*
G01X33112Y31207D02*
G01X32099Y32221D01*
G01X30075Y32221D01*
G01X27397Y29544D01*
G01X27397Y9389D01*
G01X31868Y4918D01*
G01X19777Y13935D02*
G01X19777Y20412D01*
G01X22571Y23206D01*
G01X31588Y11649D02*
G01X31588Y7585D01*
G01X32096Y7077D01*
G01X41018Y7077D01*
G01X42256Y5839D01*
G01X32858Y11649D02*
G01X32858Y8347D01*
G01X33366Y7839D01*
G01X42764Y7839D01*
G01X44796Y5807D01*
G01X34128Y11649D02*
G01X34128Y9109D01*
G01X34763Y8474D01*
G01X44669Y8474D01*
G01X47336Y5807D01*
G01X36795Y11649D02*
G01X36795Y9871D01*
G01X37303Y9363D01*
G01X46320Y9363D01*
G01X49876Y5807D01*
G36*
G01X20920Y15205D02*
G01X23460Y15205D01*
G01X23460Y20285D01*
G01X20920Y20285D01*
G01X20920Y15205D01*
G37*
G36*
G01X43780Y15205D02*
G01X46320Y15205D01*
G01X46320Y20285D01*
G01X43780Y20285D01*
G01X43780Y15205D01*
G37*
G36*
G01X28540Y12665D02*
G01X38700Y12665D01*
G01X38700Y22825D01*
G01X28540Y22825D01*
G01X28540Y12665D01*
G37*
G54D20*
G01X42256Y6411D03*
G01X44796Y6379D03*
G01X47336Y6379D03*
G01X49876Y6379D03*
G01X52416Y6379D03*
G54D21*
G01X50902Y25746D03*
G54D22*
G01X58502Y25746D03*
G54D23*
G01X33874Y4918D03*
G54D24*
G01X38675Y4918D03*
G01X29074Y4918D03*
G54D23*
G01X31868Y4918D03*
G01X35779Y4918D03*
G54D20*
G01X38192Y31207D03*
G01X35652Y31207D03*
G01X33112Y31207D03*
G01X30572Y31207D03*
G54D14*
G01X29683Y11141D03*
G54D15*
G01X14316Y9998D03*
G01X14316Y8347D03*
G01X22571Y23206D03*
G01X19777Y13935D03*
G01X45050Y14964D03*
G01X31588Y11649D03*
G01X32858Y11649D03*
G01X34128Y11649D03*
G01X36795Y11649D03*
M00*
M02*
