G04 Layer: TopSolderMaskLayer*
G04 EasyEDA v6.3.22, 2020-04-03T23:48:27+02:00*
G04 c84acfee6ada4594b27f9e032ef05081,b454bf58618a4ea094e2924ff918fcb0,10*
G04 Gerber Generator version 0.2*
G04 Scale: 100 percent, Rotated: No, Reflected: No *
G04 Dimensions in millimeters *
G04 leading zeros omitted , absolute positions ,3 integer and 3 decimal *
%FSLAX33Y33*%
%MOMM*%
G90*
G71D02*

%ADD31C,0.903199*%
%ADD32C,1.727200*%
%ADD36C,1.403198*%
%ADD37C,1.703197*%
%ADD38C,2.743200*%

%LPD*%
G54D31*
G01X31588Y17127D02*
G01X31588Y15627D01*
G01X32858Y17127D02*
G01X32858Y15627D01*
G01X34128Y17127D02*
G01X34128Y15627D01*
G01X35398Y17127D02*
G01X35398Y15627D01*
G01X31588Y23928D02*
G01X31588Y22428D01*
G01X32858Y23928D02*
G01X32858Y22428D01*
G01X34128Y23928D02*
G01X34128Y22428D01*
G01X35398Y23928D02*
G01X35398Y22428D01*
G54D32*
G01X42256Y6411D03*
G01X44796Y6379D03*
G01X47336Y6379D03*
G01X49876Y6379D03*
G01X52416Y6379D03*
G36*
G01X51464Y9023D02*
G01X51464Y11228D01*
G01X53267Y11228D01*
G01X53267Y9023D01*
G01X51464Y9023D01*
G37*
G36*
G01X48264Y9023D02*
G01X48264Y11228D01*
G01X50067Y11228D01*
G01X50067Y9023D01*
G01X48264Y9023D01*
G37*
G36*
G01X34040Y8617D02*
G01X34040Y10618D01*
G01X35741Y10618D01*
G01X35741Y8617D01*
G01X34040Y8617D01*
G37*
G36*
G01X31040Y8617D02*
G01X31040Y10618D01*
G01X32742Y10618D01*
G01X32742Y8617D01*
G01X31040Y8617D01*
G37*
G36*
G01X59211Y9023D02*
G01X59211Y11228D01*
G01X61014Y11228D01*
G01X61014Y9023D01*
G01X59211Y9023D01*
G37*
G36*
G01X56011Y9023D02*
G01X56011Y11228D01*
G01X57814Y11228D01*
G01X57814Y9023D01*
G01X56011Y9023D01*
G37*
G36*
G01X4317Y23946D02*
G01X4317Y26150D01*
G01X6120Y26150D01*
G01X6120Y23946D01*
G01X4317Y23946D01*
G37*
G36*
G01X7517Y23946D02*
G01X7517Y26150D01*
G01X9320Y26150D01*
G01X9320Y23946D01*
G01X7517Y23946D01*
G37*
G36*
G01X12699Y23946D02*
G01X12699Y26150D01*
G01X14502Y26150D01*
G01X14502Y23946D01*
G01X12699Y23946D01*
G37*
G36*
G01X15899Y23946D02*
G01X15899Y26150D01*
G01X17702Y26150D01*
G01X17702Y23946D01*
G01X15899Y23946D01*
G37*
G36*
G01X50202Y25045D02*
G01X50202Y26448D01*
G01X51604Y26448D01*
G01X51604Y25045D01*
G01X50202Y25045D01*
G37*
G54D36*
G01X58502Y25746D03*
G54D37*
G01X33874Y4918D03*
G54D38*
G01X38675Y4918D03*
G01X29074Y4918D03*
G54D37*
G01X31868Y4918D03*
G01X35779Y4918D03*
G36*
G01X3773Y19673D02*
G01X3773Y22076D01*
G01X5376Y22076D01*
G01X5376Y19673D01*
G01X3773Y19673D01*
G37*
G36*
G01X3773Y10875D02*
G01X3773Y13278D01*
G01X5376Y13278D01*
G01X5376Y10875D01*
G01X3773Y10875D01*
G37*
G36*
G01X8271Y10875D02*
G01X8271Y13278D01*
G01X9874Y13278D01*
G01X9874Y10875D01*
G01X8271Y10875D01*
G37*
G36*
G01X8271Y19673D02*
G01X8271Y22076D01*
G01X9874Y22076D01*
G01X9874Y19673D01*
G01X8271Y19673D01*
G37*
G36*
G01X12155Y19673D02*
G01X12155Y22076D01*
G01X13758Y22076D01*
G01X13758Y19673D01*
G01X12155Y19673D01*
G37*
G36*
G01X12155Y10875D02*
G01X12155Y13278D01*
G01X13758Y13278D01*
G01X13758Y10875D01*
G01X12155Y10875D01*
G37*
G36*
G01X16653Y10875D02*
G01X16653Y13278D01*
G01X18256Y13278D01*
G01X18256Y10875D01*
G01X16653Y10875D01*
G37*
G36*
G01X16653Y19673D02*
G01X16653Y22076D01*
G01X18256Y22076D01*
G01X18256Y19673D01*
G01X16653Y19673D01*
G37*
G36*
G01X58662Y17288D02*
G01X58662Y18891D01*
G01X61065Y18891D01*
G01X61065Y17288D01*
G01X58662Y17288D01*
G37*
G36*
G01X49864Y17288D02*
G01X49864Y18891D01*
G01X52267Y18891D01*
G01X52267Y17288D01*
G01X49864Y17288D01*
G37*
G36*
G01X49864Y12790D02*
G01X49864Y14393D01*
G01X52267Y14393D01*
G01X52267Y12790D01*
G01X49864Y12790D01*
G37*
G36*
G01X58662Y12790D02*
G01X58662Y14393D01*
G01X61065Y14393D01*
G01X61065Y12790D01*
G01X58662Y12790D01*
G37*
G54D32*
G01X38192Y31207D03*
G01X35652Y31207D03*
G01X33112Y31207D03*
G01X30572Y31207D03*
M00*
M02*
